<svg height="63.999508" viewBox="0 0 60.235 63.999509" width="60.235001" xmlns="http://www.w3.org/2000/svg"><g fill="#ccc" fill-opacity=".50196081" transform="scale(.23903157)"><path d="m210.391 0v67.921c0 10.77-8.82 19.59-19.6 19.59h-130.609c-10.77 0-19.579-8.82-19.579-19.59v-67.901h-16.71l0 0c-13.154 0-23.893 11.417-23.893 25.378v219.263c0 12.699 9.769 23.084 21.721 23.084h208.554c11.951 0 21.721-10.385 21.721-23.075v-193.701zm3.274 231.295c0 9.406-7.688 17.084-17.084 17.084h-138.237c-9.396 0-17.074-7.678-17.074-17.084v-71.194c0-9.406 7.678-17.085 17.074-17.085h138.237c9.396 0 17.084 7.679 17.084 17.085z"/><path d="m195.114 171.516h-135.324c-.799 0-1.447.648-1.447 1.447v3.521c0 .799.648 1.447 1.447 1.447h135.324c.799 0 1.446-.648 1.446-1.447v-3.521c0-.799-.647-1.447-1.446-1.447z"/><path d="m195.114 184.348h-135.324c-.799 0-1.447.64601-1.447 1.446v3.52101c0 .79999.648 1.44599 1.447 1.44599h135.324c.799 0 1.446-.646 1.446-1.44599v-3.52101c0-.79999-.647-1.446-1.446-1.446z"/><path d="m195.114 197.178h-135.324c-.799 0-1.447.648-1.447 1.447v3.521c0 .799.648 1.447 1.447 1.447h135.324c.799 0 1.446-.648 1.446-1.447v-3.521c0-.799-.647-1.447-1.446-1.447z"/><path d="m171.833 70.294h20.322c1.979 0 3.598-1.616 3.598-3.594v-66.669h-27.492v66.692c0 1.966 1.61 3.571 3.572 3.571z"/></g></svg>