<?xml version="1.0" encoding="UTF-8"?>
<svg width="100px" height="100px" version="1.1" viewBox="0 0 100 100" xmlns="http://www.w3.org/2000/svg" xmlns:xlink="http://www.w3.org/1999/xlink">
 <defs>
  <path id="path-1" d="m6.3598 4.5707c14.547-3.0471 29.093-4.5707 43.64-4.5707s29.093 1.5236 43.64 4.5707l5e-7 -2.45e-6c3.7057 0.77624 6.3598 4.0439 6.3598 7.8301l1.8e-6 75.198c0 3.7861-2.6541 7.0538-6.3598 7.8301-14.547 3.0471-29.093 4.5707-43.64 4.5707s-29.093-1.5236-43.64-4.5707l-5.2e-7 2.4e-6c-3.7057-0.77624-6.3598-4.0439-6.3598-7.8301l-1.7712e-6 -75.198c0-3.7861 2.6541-7.0538 6.3598-7.8301z"/>
  <path id="path-3" d="m3.123 3.2348c9.5966-2.1566 21.889-3.2348 36.877-3.2348s27.28 1.0783 36.877 3.2348l-1e-7 5.2e-7c1.8257 0.41027 3.123 2.0314 3.123 3.9027l-1.17e-5 65.725c0 1.8712-1.2973 3.4924-3.123 3.9027-9.5966 2.1566-21.889 3.2348-36.877 3.2348s-27.28-1.0783-36.877-3.2348l1.1e-7 -5e-7c-1.8257-0.41027-3.123-2.0314-3.123-3.9027l1.1664e-5 -65.725c0-1.8712 1.2973-3.4924 3.123-3.9027z"/>
 </defs>
 <g fill="none" fill-rule="evenodd">
  <g transform="translate(-440 -130)">
   <g transform="translate(440 130)">
    <mask id="mask-2" fill="white">
     <use xlink:href="#path-1"/>
    </mask>
    <use transform="translate(50 50) rotate(90) translate(-50 -50)" fill="#4A64FF" xlink:href="#path-1"/>
    <g mask="url(#mask-2)">
     <g transform="translate(10 10)" fill-rule="evenodd">
      <mask id="mask-4" fill="white">
       <use xlink:href="#path-3"/>
      </mask>
      <use transform="translate(40 40) rotate(90) translate(-40 -40)" fill="#141416" xlink:href="#path-3"/>
      <polygon points="0 0 80 0 80 62 0 62" fill="#4A64FF" mask="url(#mask-4)" opacity=".8"/>
      <rect width="80" height="40" fill="#272730" mask="url(#mask-4)" opacity=".2"/>
     </g>
    </g>
    <path transform="translate(3.4781 50) rotate(90) translate(-3.4781 -50)" d="m-34.068 42.09c9.6921 2.2586 22.207 3.3879 37.546 3.3879s27.854-1.1293 37.546-3.3879l-4e-6 -1.74e-5c1.0758-0.25069 2.1511 0.41815 2.4017 1.4939 0.03468 0.14882 0.052191 0.30112 0.052191 0.45392l-1e-6 6.3026c0 1.8712-1.2973 3.4924-3.123 3.9027-9.5966 2.1566-21.889 3.2348-36.877 3.2348s-27.28-1.0783-36.877-3.2348l1e-7 -6e-7c-1.8257-0.41027-3.123-2.0314-3.123-3.9027l-1.93e-5 -6.3026c0-1.1046 0.89544-2 2-2 0.1528 0 0.3051 0.017511 0.45392 0.052191z" fill="#141416" mask="url(#mask-2)" opacity=".2"/>
    <path transform="translate(96.478 50) scale(-1 1) rotate(90) translate(-96.478 -50)" d="m58.932 42.09c9.6921 2.2586 22.207 3.3879 37.546 3.3879s27.854-1.1293 37.546-3.3879l-4e-6 -1.74e-5c1.0758-0.25069 2.1511 0.41815 2.4017 1.4939 0.03468 0.14882 0.052191 0.30112 0.052191 0.45392l-1e-6 6.3026c0 1.8712-1.2973 3.4924-3.123 3.9027-9.5966 2.1566-21.889 3.2348-36.877 3.2348s-27.28-1.0783-36.877-3.2348l1e-7 -6e-7c-1.8257-0.41027-3.123-2.0314-3.123-3.9027l-1.93e-5 -6.3026c0-1.1046 0.89544-2 2-2 0.1528 0 0.3051 0.017511 0.45392 0.052191z" fill="#141416" mask="url(#mask-2)" opacity=".2"/>
    <rect x="21" y="76" width="58" height="10" rx="2" fill="#fff" mask="url(#mask-2)"/>
    <g fill="#272730" mask="url(#mask-2)">
     <g transform="translate(23 78)">
      <rect width="2" height="2"/>
      <rect y="4" width="2" height="2"/>
      <rect x="4" width="2" height="2"/>
      <rect x="4" y="4" width="2" height="2"/>
      <rect x="8" width="2" height="2"/>
      <rect x="8" y="4" width="2" height="2"/>
      <rect x="12" width="2" height="2"/>
      <rect x="12" y="4" width="2" height="2"/>
      <rect x="16" width="2" height="2"/>
      <rect x="16" y="4" width="2" height="2"/>
      <rect x="20" width="2" height="2"/>
      <rect x="20" y="4" width="2" height="2"/>
      <rect x="24" width="2" height="2"/>
      <rect x="24" y="4" width="2" height="2"/>
      <rect x="28" width="2" height="2"/>
      <rect x="28" y="4" width="2" height="2"/>
      <rect x="32" width="2" height="2"/>
      <rect x="32" y="4" width="2" height="2"/>
      <rect x="36" width="2" height="2"/>
      <rect x="36" y="4" width="2" height="2"/>
      <rect x="40" width="2" height="2"/>
      <rect x="40" y="4" width="2" height="2"/>
      <rect x="44" width="2" height="2"/>
      <rect x="44" y="4" width="2" height="2"/>
      <rect x="48" width="2" height="2"/>
      <rect x="48" y="4" width="2" height="2"/>
      <rect x="52" width="2" height="2"/>
      <rect x="52" y="4" width="2" height="2"/>
     </g>
    </g>
    <text fill="#FFFFFF" font-family="OpenSans-Bold, Open Sans" font-size="8" font-weight="bold" letter-spacing=".35556" mask="url(#mask-2)" line-spacing="22"><tspan x="25.3355468" y="59">ADALM2000</tspan></text>
    <path d="m26 23.111h13.418v13.889h-13.418v-13.889zm11.02 6.7041-8.6266-4.7913v10.058l8.6266-5.2671zm4.9706 0.51318h2.0825c0.36061-0.012458 0.72107 0.028424 1.0695 0.1213 0.3345 0.11249 0.63011 0.31626 0.85277 0.58783 0.24875 0.30168 0.43164 0.65116 0.5371 1.0264 0.13309 0.48795 0.19497 0.99225 0.18375 1.4976 0.0096969 0.4555-0.049053 0.90989-0.17432 1.3483-0.11137 0.41419-0.31774 0.79735-0.60306 1.1197-0.21955 0.2335-0.49502 0.40841-0.80094 0.50852-0.32642 0.098695-0.66717 0.14284-1.0082 0.13063h-2.139v-6.3402zm1.1402 1.073v4.1988h0.84806c0.23097 0.0093186 0.46219-0.011068 0.68787-0.060649 0.17488-0.044279 0.33441-0.13455 0.46172-0.26126 0.14781-0.17669 0.24972-0.38651 0.29682-0.61116 0.087499-0.38093 0.12706-0.77111 0.11779-1.1617 0.011052-0.37983-0.028552-0.75944-0.11779-1.129-0.057449-0.22792-0.16889-0.43902-0.32509-0.61582-0.14181-0.1495-0.32561-0.2535-0.52768-0.29858-0.30817-0.050668-0.62065-0.070984-0.93286-0.060649h-0.50883zm4.4476 5.2671v-6.3402h4.1838v1.073h-3.0436v1.4089h2.8316v1.0637h-2.8316v1.7262h3.1472v1.0684h-4.2874zm6.5913 0-2.0165-6.3402h1.2344l1.4276 4.6933 1.3804-4.6933h1.2061l-2.0165 6.3402h-1.2155zm3.6749 0v-6.3402h1.1402v6.3402h-1.1402zm5.7291-2.328 1.1025 0.39189c-0.11166 0.58921-0.40653 1.1291-0.84335 1.5442-0.42127 0.34167-0.95407 0.51919-1.4982 0.49919-0.71717 0.014878-1.4002-0.30261-1.8469-0.85842-0.51346-0.67831-0.76872-1.5143-0.72085-2.3606-0.055614-0.8783 0.20109-1.7482 0.72556-2.4586 0.46258-0.57429 1.1713-0.89927 1.9128-0.87708 0.63529-0.022496 1.2491 0.22948 1.682 0.69047 0.28807 0.33443 0.48582 0.7357 0.57479 1.1663l-1.126 0.30325c-0.049578-0.29825-0.19694-0.57205-0.41932-0.77911-0.20913-0.18974-0.48442-0.29175-0.76796-0.28458-0.40236-0.0084269-0.78306 0.18006-1.0177 0.50385-0.30359 0.49049-0.44063 1.0643-0.39105 1.6375-0.052926 0.59654 0.082036 1.1947 0.38634 1.7122 0.22356 0.32767 0.59955 0.52085 0.99882 0.51318 0.29393 0.0039914 0.57602-0.11451 0.77739-0.32657 0.25481-0.28565 0.41871-0.63947 0.47114-1.017zm1.9788 2.328v-6.3402h4.179v1.073h-3.0436v1.4089h2.8316v1.0637h-2.8316v1.7262h3.1519v1.0684h-4.2874zm4.8622-2.0621 1.1072-0.1213c0.031534 0.34297 0.17358 0.66681 0.40518 0.92373 0.22396 0.20341 0.521 0.30929 0.8245 0.29391 0.30096 0.02278 0.59888-0.072758 0.82921-0.26592 0.17811-0.15392 0.2796-0.37708 0.27797-0.61116 0.0051481-0.13554-0.036386-0.2688-0.11779-0.37789-0.10628-0.12972-0.24887-0.22547-0.40989-0.27525-0.13192-0.055984-0.43816-0.14462-0.90931-0.27992-0.47476-0.098684-0.91697-0.31362-1.2862-0.62515-0.57108-0.58673-0.68242-1.4763-0.27326-2.1834 0.16187-0.28075 0.40692-0.50549 0.702-0.64381 0.34953-0.15412 0.7294-0.22903 1.1119-0.21927 0.58121-0.041707 1.1555 0.14616 1.5972 0.52252 0.36824 0.37396 0.57158 0.87732 0.56537 1.3996l-1.1402 0.055984c-0.01772-0.26441-0.12957-0.51403-0.31567-0.70446-0.20578-0.15625-0.46217-0.23258-0.72085-0.2146-0.27794-0.01439-0.55243 0.066325-0.77739 0.2286-0.11872 0.097415-0.18489 0.24399-0.17903 0.39655-0.0012971 0.14567 0.06044 0.28491 0.16961 0.38256 0.31463 0.21274 0.67103 0.3574 1.0459 0.42454 0.42823 0.098814 0.84161 0.25251 1.2297 0.4572 0.26139 0.15608 0.47605 0.37831 0.62191 0.64381 0.15983 0.31337 0.23759 0.66149 0.22615 1.0124 9.773e-4 0.35633-0.091563 0.70679-0.26855 1.017-0.17147 0.31098-0.43892 0.55947-0.76325 0.70913-0.38621 0.16503-0.8046 0.24311-1.225 0.2286-0.60123 0.041741-1.1941-0.15842-1.6443-0.55517-0.4153-0.44175-0.65757-1.0159-0.68316-1.6189zm-23.015-5.1552h-1.2344l-0.48999-1.4416h-2.2474l-0.46172 1.4416h-1.2061l2.1908-6.3402h1.1967l2.2521 6.3402zm-2.0872-2.5053-0.77739-2.356-0.75854 2.356h1.5359zm2.596 2.5053v-6.3402h1.1072l2.2992 4.2361v-4.2361h1.0554v6.3402h-1.1402l-2.2662-4.1335v4.1335h-1.0554zm10.629 0h-1.2344l-0.4947-1.4416h-2.2474l-0.46172 1.4416h-1.2014l2.1861-6.3402h1.2014l2.2521 6.3402zm-2.0919-2.5053-0.77267-2.356-0.75854 2.356h1.5312zm2.6196 2.5053v-6.2888h1.1355v5.2205h2.8221v1.0684h-3.9576zm4.4335-3.1304c-0.016401-0.55395 0.071472-1.1061 0.25913-1.6282 0.12382-0.3163 0.30063-0.60966 0.52297-0.86775 0.19752-0.23936 0.44505-0.43354 0.72556-0.56917 0.37894-0.17427 0.79311-0.26044 1.2108-0.25193 0.76239-0.029684 1.496 0.29049 1.9882 0.86775 0.99081 1.4578 0.99267 3.3642 0.0047115 4.8239-0.51094 0.55002-1.2312 0.86301-1.9859 0.86301-0.75471 0-1.4749-0.31299-1.9859-0.86301-0.52779-0.67727-0.79051-1.5207-0.73969-2.3746zm1.1684-0.041988c-0.038656 0.57779 0.11708 1.152 0.44287 1.6329 0.26092 0.35396 0.67881 0.56086 1.1213 0.55517 0.43996 0.0058729 0.85508-0.2014 1.1119-0.55517 0.32378-0.48841 0.47611-1.0688 0.43345-1.6515 0.042901-0.5741-0.1061-1.1462-0.42403-1.6282-0.27414-0.34074-0.69072-0.53846-1.1307-0.53664s-0.85485 0.20298-1.1261 0.54597c-0.3202 0.4846-0.47083 1.0599-0.42874 1.6375zm7.6843 0.84442v-1.073h2.4452v2.5286c-0.29344 0.29766-0.6465 0.53126-1.0365 0.6858-0.43119 0.19194-0.89828 0.29207-1.371 0.29391-0.54197 0.01334-1.076-0.13102-1.5359-0.41521-0.44438-0.28844-0.78821-0.70547-0.98469-1.1943-0.22389-0.53514-0.33608-1.1096-0.3298-1.6888-0.011188-0.60605 0.11436-1.2069 0.36749-1.7588 0.22642-0.4953 0.60369-0.90803 1.0789-1.1803 0.4099-0.22527 0.8743-0.33499 1.3428-0.31724 0.58708-0.033534 1.1669 0.14186 1.6349 0.49452 0.4076 0.35486 0.67612 0.84041 0.75854 1.3716l-1.126 0.23793c-0.065929-0.28803-0.22268-0.54781-0.44759-0.74179-0.23196-0.18406-0.52269-0.28002-0.81979-0.27059-0.45666-0.016455-0.8946 0.1805-1.1826 0.53185-0.32385 0.46231-0.47844 1.0203-0.43816 1.5815-0.042676 0.59786 0.11462 1.193 0.44759 1.6935 0.27076 0.36597 0.70574 0.57697 1.1637 0.5645 0.24715-0.0039025 0.49087-0.057885 0.71614-0.15862 0.22203-0.097039 0.42841-0.22594 0.61249-0.38256v-0.80243h-1.2956z" fill="#fff" mask="url(#mask-2)"/>
   </g>
  </g>
 </g>
</svg>
