<svg version="1.1" id="Layer_1" x="0px" y="0px"
	 width="32" height="32" viewBox="0 0 1024 1024" enable-background="new 0 0 1024 1024" xml:space="preserve">
<path fill="#000" opacity=".6" stroke="none" 
	d="
M700.000000,494.712524 
	C732.829285,494.712067 765.158508,494.722443 797.487793,494.705170 
	C806.767822,494.700226 805.576660,495.340576 805.712463,486.255646 
	C805.751892,483.621033 805.282043,480.941223 806.108704,478.395111 
	C807.639160,477.632904 808.341736,478.784454 809.118164,479.559021 
	C819.263916,489.680237 829.369324,499.842072 839.541016,509.937134 
	C841.415833,511.797760 842.528381,513.296997 840.098206,515.689270 
	C829.766357,525.859619 819.555908,536.153320 809.296143,546.396973 
	C808.594788,547.097229 807.853271,547.757629 806.264832,547.613037 
	C805.110107,543.635193 805.805298,539.495789 805.755615,535.450439 
	C805.719360,532.503296 804.714172,531.069580 801.658875,531.303894 
	C800.333923,531.405518 798.993896,531.307251 797.660767,531.307251 
	C707.505493,531.306946 617.350159,531.329895 527.194946,531.235107 
	C523.094299,531.230774 519.916809,532.325745 516.798645,534.971558 
	C480.729156,565.577881 444.577087,596.086853 408.445404,626.619812 
	C378.166229,652.207092 347.886627,677.793823 317.599945,703.372253 
	C316.086823,704.650146 314.504059,705.845642 312.715363,707.269104 
	C316.587372,712.179138 319.833252,716.295105 323.421783,720.845642 
	C319.388916,722.121826 315.946014,721.323730 312.610474,721.084229 
	C301.159363,720.261902 289.725830,719.194641 278.286499,718.210266 
	C275.382690,717.960449 272.392670,717.820312 272.769775,713.590881 
	C274.126526,698.375610 275.459442,683.158203 276.886719,666.973450 
	C282.333618,670.289124 284.492126,675.715149 289.230042,679.375732 
	C296.803833,673.018311 304.428558,666.651611 312.017303,660.242493 
	C349.693756,628.422241 387.358704,596.588379 425.031799,564.764160 
	C447.177795,546.056396 469.286560,527.303894 491.534393,508.718018 
	C494.575073,506.177856 494.733978,503.233185 494.732727,499.830872 
	C494.704468,423.173889 494.714478,346.516876 494.715454,269.859894 
	C494.715637,255.028427 494.593140,240.195511 494.780853,225.366470 
	C494.831329,221.378174 493.445892,220.073242 489.572266,220.224808 
	C485.971344,220.365677 482.289398,220.783646 478.762207,219.825562 
	C478.010468,217.771500 479.549225,216.917160 480.526825,215.932541 
	C490.270691,206.118500 500.070007,196.359512 509.823425,186.554932 
	C511.634308,184.734573 513.164307,183.485428 515.596924,185.954178 
	C525.889099,196.399506 536.312744,206.715256 546.672180,217.094482 
	C547.243225,217.666565 547.817993,218.321762 547.450562,219.844559 
	C544.520691,220.773941 541.217346,220.224411 538.004517,220.269043 
	C531.346069,220.361557 531.330383,220.298279 531.327698,226.771332 
	C531.316528,253.934570 531.311707,281.097809 531.310608,308.261047 
	C531.308167,367.920197 531.309326,427.579315 531.309265,487.238464 
	C531.309265,494.694824 531.309753,494.706818 539.020874,494.707489 
	C592.513916,494.712280 646.006958,494.711700 700.000000,494.712524 
z"/>
<path fill="#000" opacity=".6" stroke="none" 
	d="
M849.086182,421.019226 
	C851.132812,417.849609 853.512329,417.374756 857.172729,419.161133 
	C853.847717,424.457581 850.893433,429.592743 847.494080,434.414124 
	C845.520081,437.213959 845.755310,439.291870 847.597534,441.985809 
	C851.210693,447.269440 854.488342,452.782471 858.451599,459.067688 
	C846.120117,460.243103 847.563477,447.975372 840.890503,444.200745 
	C838.423889,448.015472 835.790405,451.816040 833.451965,455.790161 
	C831.557800,459.009460 829.196472,460.266998 825.140930,458.558533 
	C826.874390,453.440094 830.176758,449.224365 833.314453,445.132111 
	C837.118225,440.170959 837.373169,436.060730 833.374268,431.117432 
	C830.504333,427.569611 827.853699,423.698578 826.004700,419.141449 
	C830.924683,416.349487 833.075256,419.439728 835.112061,422.857971 
	C836.964844,425.967316 838.846680,429.059357 840.990356,432.614532 
	C844.749329,429.120911 846.390442,424.914917 849.086182,421.019226 
z"/>
<path fill="#000" opacity=".6" stroke="none" 
	d="
M240.496429,721.825928 
	C247.263168,721.782349 253.582947,721.733032 259.902039,721.778076 
	C261.659943,721.790588 263.773712,721.287292 264.779724,723.367798 
	C265.761688,725.398621 264.866943,727.236633 263.690521,728.943726 
	C257.380829,738.099304 251.075409,747.257812 244.316879,757.071045 
	C249.495621,758.171326 254.073914,757.462708 258.580017,757.672791 
	C260.239929,757.750244 261.904846,757.719299 263.564941,757.794373 
	C265.397034,757.877136 266.245483,758.885742 266.154419,760.712402 
	C266.074707,762.310852 265.205078,763.213989 263.650269,763.219910 
	C255.171646,763.252014 246.642731,763.771606 238.235046,762.996399 
	C233.984268,762.604431 235.629288,758.752075 237.198181,756.414673 
	C242.386459,748.684875 247.782837,741.094971 253.065094,733.427856 
	C254.179077,731.810913 255.638641,730.367981 256.055389,727.935791 
	C251.148880,726.774414 246.198349,727.669739 241.322113,727.374817 
	C239.707809,727.277161 237.757629,727.628723 237.416306,725.298706 
	C237.133514,723.368225 237.961197,722.077698 240.496429,721.825928 
z"/>
<path fill="#000" opacity=".6" stroke="none" 
	d="
M525.725769,137.642975 
	C524.451355,139.824997 523.513062,141.795029 522.271973,143.551086 
	C517.707397,150.009888 515.269104,156.975204 516.283325,165.021194 
	C516.555298,167.178909 516.927795,170.048370 513.230469,170.003494 
	C509.790497,169.961731 509.546844,167.308319 509.947601,165.042755 
	C511.767059,154.757660 506.609344,146.776947 501.654327,138.685730 
	C499.859283,135.754578 497.914978,132.889114 496.954956,129.487152 
	C501.197266,127.705589 503.603485,129.096191 505.400360,132.640167 
	C507.709381,137.194244 510.303467,141.603806 513.383667,147.177460 
	C516.385620,141.700424 518.834229,137.122009 521.388977,132.603607 
	C523.850891,128.249390 524.006714,128.232468 529.528748,129.368347 
	C529.422119,132.518524 527.019653,134.647461 525.725769,137.642975 
z"/>
</svg>
