<?xml version="1.0" encoding="UTF-8"?>
<svg width="32" height="32" version="1.1" viewBox="0 0 32 32" xmlns="http://www.w3.org/2000/svg">
 <g fill="#000" opacity=".6" transform="translate(6 8)">
  <path d="m6 16c-0.09 0-0.17-0.01-0.25-0.04-0.44-0.11-0.75-0.51-0.75-0.96v-10.23l-2.13 3.72c-0.18 0.32-0.51 0.51-0.87 0.51h-2v-2h1.42l3.71-6.49c0.23-0.4 0.69-0.59 1.13-0.47 0.44 0.11 0.74 0.51 0.74 0.96v10.23l6.13-10.72c0.23-0.4 0.69-0.59 1.13-0.47 0.44 0.11 0.74 0.51 0.74 0.96v10.23l2.13-3.73c0.18-0.31 0.51-0.5 0.87-0.5h2v2h-1.42l-3.71 6.49c-0.22 0.39-0.68 0.59-1.12 0.47-0.44-0.11-0.75-0.51-0.75-0.96v-10.23l-6.13 10.72c-0.18 0.31-0.51 0.51-0.87 0.51z" fill-rule="evenodd"/>
 </g>
</svg>
