<?xml version="1.0" encoding="UTF-8" standalone="no"?>
<svg width="30px" height="20px" viewBox="0 0 30 20" version="1.1" xmlns="http://www.w3.org/2000/svg" xmlns:xlink="http://www.w3.org/1999/xlink">
    <!-- Generator: Sketch 41 (35326) - http://www.bohemiancoding.com/sketch -->
    <title>- over</title>
    <desc>Created with Sketch.</desc>
    <defs></defs>
    <g id="main" stroke="none" stroke-width="1" fill="none" fill-rule="evenodd">
        <g id="gating-icons-HD" transform="translate(-1690.000000, -310.000000)">
            <g id="--over" transform="translate(1690.000000, 311.000000)">
                <path d="M1,12 C1,12 13,12 15,12 C17,12 16.637521,14 17,14 C17,16 18,18 21,18 C24,18 25,15 25,14 C25,11 25,6.5 25,4 C25,1.0658141e-14 29,0 29,0" id="Line-Copy-16" stroke="#727273" stroke-width="2" stroke-linecap="square" transform="translate(15.000000, 9.000000) scale(1, -1) rotate(-180.000000) translate(-15.000000, -9.000000) "></path>
                <rect id="Rectangle_2_copy_122-Copy-31" fill="#4A64FF" transform="translate(15.000000, 11.500000) scale(1, -1) translate(-15.000000, -11.500000) " x="0" y="11" width="30" height="1"></rect>
                <rect id="Rectangle_2_copy_122-Copy-30" fill="#4A64FF" transform="translate(15.000000, 18.500000) scale(1, -1) translate(-15.000000, -18.500000) " x="0" y="18" width="30" height="1"></rect>
            </g>
        </g>
    </g>
</svg>