<svg width="504" height="516" viewBox="0 0 504 516" fill="none" xmlns="http://www.w3.org/2000/svg">
<rect width="504" height="516" fill="#247430"/>
<rect x="56" y="458" width="154" height="54" fill="#52ABE3"/>
<path d="M469 88L409 88L409 34L469 34L469 88Z" fill="#52ABE3"/>
<rect x="229" y="438" width="48" height="74" fill="#52ABE3"/>
<rect x="226" y="438" width="55" height="40" fill="#52ABE3"/>
<rect x="111" y="331" width="44" height="44" fill="#353535"/>
<rect x="324" y="222" width="54" height="46" fill="#353535"/>
<rect x="423" y="127" width="50" height="52" rx="8" fill="#3A3E3E"/>
<rect x="438" y="234" width="20" height="14" fill="#353535"/>
<rect x="270" y="230" width="44" height="34" fill="#4A4A4A"/>
<rect x="285" y="278" width="16" height="16" fill="#3A3E3E"/>
<rect x="63" y="465" width="14" height="18" fill="#D9D9D9"/>
<rect x="57" y="432" width="28" height="26" fill="#616065"/>
<rect x="96" y="432" width="28" height="26" fill="#616065"/>
<rect x="133" y="432" width="28" height="26" fill="#616065"/>
<rect x="174" y="432" width="28" height="26" fill="#616065"/>
<rect x="81" y="465" width="14" height="18" fill="#D9D9D9"/>
<rect x="99" y="465" width="14" height="18" fill="#D9D9D9"/>
<rect x="117" y="465" width="14" height="18" fill="#D9D9D9"/>
<rect x="135" y="465" width="14" height="18" fill="#D9D9D9"/>
<rect x="153" y="465" width="14" height="18" fill="#D9D9D9"/>
<rect x="463" y="81" width="9" height="12" transform="rotate(-180 463 81)" fill="#D9D9D9"/>
<rect x="171" y="465" width="14" height="18" fill="#D9D9D9"/>
<rect x="443" y="81" width="9" height="12" transform="rotate(-180 443 81)" fill="#D9D9D9"/>
<rect x="234" y="453" width="16" height="16" fill="#D9D9D9"/>
<rect x="189" y="465" width="14" height="18" fill="#D9D9D9"/>
<rect x="424" y="81" width="9" height="12" transform="rotate(-180 424 81)" fill="#D9D9D9"/>
<rect x="257" y="453" width="16" height="16" fill="#D9D9D9"/>
<rect x="116" y="227" width="36" height="36" fill="#353535"/>
<rect x="67" y="228" width="14" height="14" fill="#545454"/>
<rect x="185" y="228" width="14" height="14" fill="#545454"/>
<rect x="67" y="249" width="14" height="14" fill="#545454"/>
<rect x="185" y="249" width="14" height="14" fill="#545454"/>
<rect x="280" y="74" width="30" height="30" fill="#353535"/>
<rect x="294" y="28" width="16" height="16" fill="#353535"/>
<rect x="263" y="9" width="10" height="10" fill="#353535"/>
<rect x="315" y="113" width="10" height="8" fill="#353535"/>
<rect x="323" y="140" width="16" height="16" fill="#353535"/>
<rect x="433" y="88" width="30" height="34" fill="#353535"/>
<rect x="288" y="154" width="27" height="26" fill="#353535"/>
<rect x="143" y="21" width="100" height="100" fill="#353535"/>
<rect x="69" y="58" width="30" height="40" fill="#353535"/>
<rect x="13" y="58" width="30" height="40" fill="#353535"/>
<rect x="159" y="155" width="2" height="30" fill="#D9D9D9"/>
<rect x="165" y="155" width="2" height="30" fill="#D9D9D9"/>
<rect x="171" y="155" width="2" height="30" fill="#D9D9D9"/>
<rect x="177" y="155" width="2" height="30" fill="#D9D9D9"/>
<rect x="183" y="155" width="2" height="30" fill="#D9D9D9"/>
<rect x="189" y="155" width="2" height="30" fill="#D9D9D9"/>
<rect x="195" y="155" width="2" height="30" fill="#D9D9D9"/>
<rect x="201" y="155" width="2" height="30" fill="#D9D9D9"/>
<rect x="157" y="160" width="48" height="20" fill="#4A4A4A"/>
<rect x="106" y="155" width="2" height="30" fill="#D9D9D9"/>
<rect x="112" y="155" width="2" height="30" fill="#D9D9D9"/>
<rect x="118" y="155" width="2" height="30" fill="#D9D9D9"/>
<rect x="124" y="155" width="2" height="30" fill="#D9D9D9"/>
<rect x="130" y="155" width="2" height="30" fill="#D9D9D9"/>
<rect x="136" y="155" width="2" height="30" fill="#D9D9D9"/>
<rect x="142" y="155" width="2" height="30" fill="#D9D9D9"/>
<rect x="148" y="155" width="2" height="30" fill="#D9D9D9"/>
<rect x="104" y="160" width="48" height="20" fill="#4A4A4A"/>
<rect x="65" y="150" width="2" height="40" fill="#D9D9D9"/>
<rect x="72" y="150" width="2" height="40" fill="#D9D9D9"/>
<rect x="84" y="150" width="2" height="40" fill="#D9D9D9"/>
<rect x="80" y="150" width="2" height="40" fill="#D9D9D9"/>
<rect x="76" y="150" width="2" height="40" fill="#D9D9D9"/>
<rect x="68" y="150" width="2" height="40" fill="#D9D9D9"/>
<rect x="88" y="150" width="2" height="40" fill="#D9D9D9"/>
<rect x="92" y="150" width="2" height="40" fill="#D9D9D9"/>
<rect x="96" y="150" width="2" height="40" fill="#D9D9D9"/>
<rect x="63" y="157" width="37" height="26" fill="#3C3C3C"/>
<rect x="211" y="150" width="2" height="40" fill="#D9D9D9"/>
<rect x="218" y="150" width="2" height="40" fill="#D9D9D9"/>
<rect x="230" y="150" width="2" height="40" fill="#D9D9D9"/>
<rect x="226" y="150" width="2" height="40" fill="#D9D9D9"/>
<rect x="222" y="150" width="2" height="40" fill="#D9D9D9"/>
<rect x="214" y="150" width="2" height="40" fill="#D9D9D9"/>
<rect x="234" y="150" width="2" height="40" fill="#D9D9D9"/>
<rect x="238" y="150" width="2" height="40" fill="#D9D9D9"/>
<rect x="242" y="150" width="2" height="40" fill="#D9D9D9"/>
<rect x="209" y="157" width="37" height="26" fill="#3C3C3C"/>
<rect x="421" y="411" width="4" height="84" transform="rotate(90 421 411)" fill="#D9D9D9"/>
<rect x="421" y="435" width="4" height="84" transform="rotate(90 421 435)" fill="#D9D9D9"/>
<rect x="421" y="447" width="4" height="84" transform="rotate(90 421 447)" fill="#D9D9D9"/>
<rect x="421" y="460" width="4" height="84" transform="rotate(90 421 460)" fill="#D9D9D9"/>
<rect x="421" y="423" width="4" height="84" transform="rotate(90 421 423)" fill="#D9D9D9"/>
<rect x="412" y="405" width="64" height="66" transform="rotate(90 412 405)" fill="#3C3C3C"/>
<rect x="25" y="150" width="2" height="40" fill="#D9D9D9"/>
<rect x="32" y="150" width="2" height="40" fill="#D9D9D9"/>
<rect x="44" y="150" width="2" height="40" fill="#D9D9D9"/>
<rect x="40" y="150" width="2" height="40" fill="#D9D9D9"/>
<rect x="36" y="150" width="2" height="40" fill="#D9D9D9"/>
<rect x="28" y="150" width="2" height="40" fill="#D9D9D9"/>
<rect x="48" y="150" width="2" height="40" fill="#D9D9D9"/>
<rect x="52" y="150" width="2" height="40" fill="#D9D9D9"/>
<rect x="56" y="150" width="2" height="40" fill="#D9D9D9"/>
<rect x="23" y="157" width="37" height="26" fill="#3C3C3C"/>
<rect x="65" y="11" width="2" height="25" transform="rotate(90 65 11)" fill="#D9D9D9"/>
<rect x="65" y="17" width="2" height="25" transform="rotate(90 65 17)" fill="#D9D9D9"/>
<rect x="65" y="20" width="2" height="25" transform="rotate(90 65 20)" fill="#D9D9D9"/>
<rect x="65" y="14" width="2" height="25" transform="rotate(90 65 14)" fill="#D9D9D9"/>
<rect x="61" y="9" width="15" height="16" transform="rotate(90 61 9)" fill="#3C3C3C"/>
<rect x="120" y="6" width="2" height="31" transform="rotate(90 120 6)" fill="#D9D9D9"/>
<rect x="120" y="19" width="2" height="31" transform="rotate(90 120 19)" fill="#D9D9D9"/>
<rect x="120" y="26" width="2" height="31" transform="rotate(90 120 26)" fill="#D9D9D9"/>
<rect x="120" y="13" width="2" height="31" transform="rotate(90 120 13)" fill="#D9D9D9"/>
<rect x="114" y="4" width="24" height="19" transform="rotate(90 114 4)" fill="#787878"/>
<rect x="175" y="304" width="2" height="16" transform="rotate(90 175 304)" fill="#D9D9D9"/>
<rect x="175" y="309" width="2" height="16" transform="rotate(90 175 309)" fill="#D9D9D9"/>
<rect x="175" y="314" width="2" height="16" transform="rotate(90 175 314)" fill="#D9D9D9"/>
<rect x="172" y="303" width="14" height="10" transform="rotate(90 172 303)" fill="#787878"/>
<rect x="175" y="389" width="2" height="16" transform="rotate(90 175 389)" fill="#D9D9D9"/>
<rect x="175" y="394" width="2" height="16" transform="rotate(90 175 394)" fill="#D9D9D9"/>
<rect x="175" y="399" width="2" height="16" transform="rotate(90 175 399)" fill="#D9D9D9"/>
<rect x="172" y="388" width="14" height="10" transform="rotate(90 172 388)" fill="#787878"/>
<rect x="107" y="304" width="2" height="16" transform="rotate(90 107 304)" fill="#D9D9D9"/>
<rect x="107" y="309" width="2" height="16" transform="rotate(90 107 309)" fill="#D9D9D9"/>
<rect x="107" y="314" width="2" height="16" transform="rotate(90 107 314)" fill="#D9D9D9"/>
<rect x="104" y="303" width="14" height="10" transform="rotate(90 104 303)" fill="#787878"/>
<rect x="107" y="389" width="2" height="16" transform="rotate(90 107 389)" fill="#D9D9D9"/>
<rect x="107" y="394" width="2" height="16" transform="rotate(90 107 394)" fill="#D9D9D9"/>
<rect x="107" y="399" width="2" height="16" transform="rotate(90 107 399)" fill="#D9D9D9"/>
<rect x="104" y="388" width="14" height="10" transform="rotate(90 104 388)" fill="#787878"/>
<rect x="439" y="255" width="2" height="31" transform="rotate(90 439 255)" fill="#FFE8C8"/>
<rect x="439" y="268" width="2" height="31" transform="rotate(90 439 268)" fill="#FFE8C8"/>
<rect x="439" y="275" width="2" height="31" transform="rotate(90 439 275)" fill="#FFE8C8"/>
<rect x="439" y="262" width="2" height="31" transform="rotate(90 439 262)" fill="#FFE8C8"/>
<rect x="433" y="254" width="24" height="22" transform="rotate(90 433 254)" fill="#8A8A8A"/>
<rect x="476" y="249" width="2" height="16" transform="rotate(-180 476 249)" fill="#FFE8C8"/>
<rect x="473" y="249" width="2" height="16" transform="rotate(-180 473 249)" fill="#FFE8C8"/>
<rect x="466" y="249" width="1" height="16" transform="rotate(-180 466 249)" fill="#FFE8C8"/>
<rect x="469" y="249" width="1" height="16" transform="rotate(-180 469 249)" fill="#FFE8C8"/>
<rect x="480" y="246" width="18" height="12" transform="rotate(-180 480 246)" fill="#8A8A8A"/>
<rect x="298.5" y="444.5" width="2" height="31" fill="#D9D9D9"/>
<rect x="308.5" y="444.5" width="2" height="31" fill="#D9D9D9"/>
<rect x="313.5" y="444.5" width="2" height="31" fill="#D9D9D9"/>
<rect x="303.5" y="444.5" width="2" height="31" fill="#D9D9D9"/>
<rect x="296" y="450" width="22" height="20" fill="#787878"/>
<rect width="25" height="77" transform="translate(12 207)" fill="#616161"/>
<rect x="16" y="211" width="4" height="4" fill="#FFFF0A"/>
<rect x="29" y="211" width="4" height="4" fill="#FFFF0A"/>
<rect x="16" y="224" width="4" height="4" fill="#FFFF0A"/>
<rect x="29" y="224" width="4" height="4" fill="#FFFF0A"/>
<rect x="16" y="237" width="4" height="4" fill="#FFFF0A"/>
<rect x="29" y="237" width="4" height="4" fill="#FFFF0A"/>
<rect x="16" y="250" width="4" height="4" fill="#FFFF0A"/>
<rect x="29" y="250" width="4" height="4" fill="#FFFF0A"/>
<rect x="16" y="263" width="4" height="4" fill="#FFFF0A"/>
<rect x="29" y="263" width="4" height="4" fill="#FFFF0A"/>
<rect x="16" y="276" width="4" height="4" fill="#FFFF0A"/>
<rect x="29" y="276" width="4" height="4" fill="#FFFF0A"/>
<rect x="76" y="305" width="6" height="10" fill="#3C3C3C"/>
<rect x="76" y="390" width="6" height="10" fill="#3C3C3C"/>
<rect x="184" y="305" width="6" height="10" fill="#3C3C3C"/>
<rect x="184" y="390" width="6" height="10" fill="#3C3C3C"/>
<rect x="409" y="237" width="10" height="6" fill="#3C3C3C"/>
<rect x="424" y="237" width="10" height="6" fill="#3C3C3C"/>
<rect x="277" y="193" width="8" height="16" fill="#353535"/>
<rect x="370" y="34" width="8" height="16" fill="#353535"/>
<rect x="391" y="43" width="12" height="20" fill="#4A4A4A"/>
<rect x="430" y="6" width="37" height="23" fill="#4A4A4A"/>
<rect x="370" y="9" width="8" height="16" fill="#353535"/>
<path d="M266 387H291L299 395V412L291 420H266V387Z" fill="#333333"/>
<circle cx="282.5" cy="403.5" r="15.5" fill="#949494"/>
<path d="M425 340L425 315L433 307L450 307L458 315L458 340L425 340Z" fill="#333333"/>
<circle cx="441.5" cy="323.5" r="15.5" transform="rotate(-90 441.5 323.5)" fill="#949494"/>
<path d="M463 340L463 315L471 307L488 307L496 315L496 340L463 340Z" fill="#333333"/>
<circle cx="479.5" cy="323.5" r="15.5" transform="rotate(-90 479.5 323.5)" fill="#949494"/>
<path d="M493 393L461.183 393L451.001 382.818L451.001 361.183L461.183 351.001L493 351.001L493 393Z" fill="#474747"/>
<circle cx="472" cy="372" r="19.7268" transform="rotate(180 472 372)" fill="#919191"/>
<path d="M493 439L461.183 439L451.001 428.818L451.001 407.183L461.183 397.001L493 397.001L493 439Z" fill="#474747"/>
<circle cx="472" cy="418" r="19.7268" transform="rotate(180 472 418)" fill="#919191"/>
</svg>
