<svg width="18" height="16" viewBox="0 0 18 16" fill="none" xmlns="http://www.w3.org/2000/svg">
<path fill-rule="evenodd" clip-rule="evenodd" d="M17.7343 14.9961C17.3776 15.6171 16.7161 16 16 16L2 16C1.28387 16 0.622393 15.6171 0.265717 14.9961C-0.0909613 14.3751 -0.0883959 13.6108 0.272442 12.9923L7.27244 0.992257C7.63086 0.377822 8.28867 0 9 0C9.71134 0 10.3691 0.377822 10.7276 0.992257L17.7276 12.9923C18.0884 13.6108 18.091 14.3751 17.7343 14.9961ZM16 14L9 2L2 14L16 14ZM8 5H10V10H8V5ZM9 11C8.44771 11 8 11.4477 8 12C8 12.5523 8.44771 13 9 13C9.55228 13 10 12.5523 10 12C10 11.4477 9.55228 11 9 11Z" fill="#666666"/>
</svg>
