<?xml version="1.0" encoding="UTF-8" standalone="no"?>
<svg width="20" height="20" viewBox="0 0 20 20" version="1.1" xmlns="http://www.w3.org/2000/svg" xmlns:xlink="http://www.w3.org/1999/xlink">
  <g fill="#000" opacity=".6" transform="matrix(1 0 0 1 -20 -10)">
    <g transform="matrix(1 0 0 1 -1600 -60)">
      <path fill-rule="evenodd" d="M1620 78 L1620 82 L1622.26 82 C1622.44 82.72 1622.73 83.41 1623.11 84.05 L1621.51 85.65 L1624.34 88.48 L1625.94 86.88 C1626.58 87.26 1627.28 87.55 1628 87.73 L1628 89.99 L1632 89.99 L1632 87.73 C1632.72 87.55 1633.42 87.26 1634.06 86.88 L1635.66 88.48 L1638.49 85.65 L1636.89 84.05 C1637.27 83.41 1637.55 82.72 1637.74 82 L1640 82 L1640 78 L1637.74 78 C1637.55 77.28 1637.27 76.58 1636.89 75.94 L1638.49 74.34 L1635.66 71.51 L1634.06 73.11 C1633.42 72.73 1632.72 72.45 1632 72.26 L1632 70 L1628 70 L1628 72.26 C1627.28 72.45 1626.58 72.73 1625.94 73.11 L1624.34 71.51 L1621.51 74.34 L1623.11 75.94 C1622.73 76.58 1622.44 77.28 1622.26 78 Z M1630 74 C1633.31 74 1636 76.69 1636 80 C1636 83.31 1633.31 86 1630 86 C1626.69 86 1624 83.31 1624 80 C1624 76.69 1626.69 74 1630 74 Z M1630 77 C1631.66 77 1633 78.34 1633 80 C1633 81.66 1631.66 83 1630 83 C1628.34 83 1627 81.66 1627 80 C1627 78.34 1628.34 77 1630 77 Z M1630 81 C1630.55 81 1631 80.55 1631 80 C1631 79.45 1630.55 79 1630 79 C1629.45 79 1629 79.45 1629 80 C1629 80.55 1629.45 81 1630 81 Z"/>
    </g>
  </g>
</svg>
