<?xml version="1.0" encoding="UTF-8"?>
<svg width="21px" height="21px" version="1.1" viewBox="0 0 21 21" xmlns="http://www.w3.org/2000/svg">
 <g fill="#000" fill-opacity=".6" fill-rule="evenodd">
  <path d="m11 12h10v-1c0.0010189-4.7708-3.3682-8.8779-8.0472-9.8096-4.6789-0.93166-9.3644 1.5716-11.191 5.9789-1.8265 4.4073-0.28533 9.4911 3.681 12.142 3.9663 2.6512 9.2531 2.1313 12.627-1.2416l-1.41-1.42c-2.6322 2.6333-6.7332 3.1025-9.8922 1.1319s-4.5409-5.8601-3.3333-9.3822c1.2076-3.522 4.6853-5.7454 8.3889-5.3631 3.7036 0.38225 6.6539 3.269 7.1167 6.9635h-2.03c-0.53074-3.1399-3.422-5.3182-6.5865-4.9624-3.1645 0.35582-5.4998 3.1218-5.32 6.3012s2.8121 5.6645 5.9965 5.6612v-2c-2.0791 0.0015505-3.8127-1.5899-3.9886-3.6615-0.17594-2.0716 1.2645-3.9326 3.314-4.2817 2.0496-0.34908 4.0248 0.93016 4.5446 2.9432h-3.87v2z"/>
 </g>
</svg>
