<?xml version="1.0" encoding="UTF-8"?>
<svg width="16px" height="20px" version="1.1" viewBox="0 0 16 20" xmlns="http://www.w3.org/2000/svg">
 <g fill="#000" opacity=".6" fill-rule="evenodd">
  <path d="m8 8c-3.3137 0-6 2.6863-6 6s2.6863 6 6 6 6-2.6863 6-6c-0.002757-3.3126-2.6874-5.9972-6-6zm0 2c0.71455 9.648e-4 1.4157 0.19404 2.03 0.559l-5.47 5.471c-0.73391-1.2349-0.74757-2.7689-0.035754-4.0166 0.71181-1.2477 2.0393-2.0167 3.4758-2.0134zm0 8c-0.71444-0.0027291-1.4152-0.19605-2.03-0.56l5.47-5.467c0.36913 0.61148 0.56287 1.3127 0.56 2.027 0 1.0609-0.42143 2.0783-1.1716 2.8284s-1.7676 1.1716-2.8284 1.1716zm-8-18v6h16v-6h-16zm14 4h-12v-2h12v2zm-13 14c-0.55228 0-1 0.44772-1 1s0.44772 1 1 1 1-0.44772 1-1-0.44772-1-1-1zm14 0c-0.55228 0-1 0.44772-1 1s0.44772 1 1 1 1-0.44772 1-1-0.44772-1-1-1z"/>
 </g>
</svg>
