<?xml version="1.0" encoding="UTF-8"?>
<svg width="16px" height="20px" viewBox="0 0 16 20" version="1.1" xmlns="http://www.w3.org/2000/svg" xmlns:xlink="http://www.w3.org/1999/xlink">
    <title>multiD</title>
    <g id="multiD" stroke="none" stroke-width="1" fill="none" fill-rule="evenodd">
        <path d="M8,8 C4.6862915,8 2,10.6862915 2,14 C2,17.3137085 4.6862915,20 8,20 C11.3137085,20 14,17.3137085 14,14 C13.997243,10.6874342 11.3125658,8.00275703 8,8 L8,8 Z M8,10 C8.71454579,10.0009648 9.41568795,10.1940379 10.03,10.559 L4.56,16.03 C3.82608888,14.7951285 3.8124339,13.2611164 4.52424609,12.0133759 C5.23605829,10.7656353 6.5635035,9.99669533 8,10 L8,10 Z M8,18 C7.28556119,17.9972709 6.58479033,17.8039548 5.97,17.44 L11.44,11.973 C11.8091273,12.584481 12.0028666,13.2857482 12,14 C12,15.060866 11.5785726,16.0782816 10.8284271,16.8284271 C10.0782816,17.5785726 9.06086596,18 8,18 L8,18 Z M0,0 L0,6 L16,6 L16,0 L0,0 L0,0 Z M14,4 L2,4 L2,2 L14,2 L14,4 L14,4 Z M1,18 C0.44771525,18 0,18.4477153 0,19 C0,19.5522847 0.44771525,20 1,20 C1.55228475,20 2,19.5522847 2,19 C2,18.4477153 1.55228475,18 1,18 L1,18 Z M15,18 C14.4477153,18 14,18.4477153 14,19 C14,19.5522847 14.4477153,20 15,20 C15.5522847,20 16,19.5522847 16,19 C16,18.4477153 15.5522847,18 15,18 L15,18 Z" id="multi" fill="#000000"></path>
    </g>
</svg>