<?xml version="1.0" encoding="UTF-8"?>
<svg width="30px" height="20px" version="1.1" viewBox="0 0 30 20" xmlns="http://www.w3.org/2000/svg">
 <g fill="none" fill-rule="evenodd">
  <g transform="translate(-1640 -590)">
   <g transform="translate(1640 591)">
    <rect x="9" y="1" width="6" height="8" fill="#727273" opacity=".6"/>
    <rect x="21" y="1" width="6" height="8" fill="#727273" opacity=".6"/>
    <rect x="3" y="9" width="6" height="8" fill="#727273" opacity=".6"/>
    <rect x="15" y="9" width="6" height="8" fill="#727273" opacity=".6"/>
    <path transform="translate(15 9) scale(1 -1) rotate(180) translate(-15 -9)" d="m3 9v-6c0-2 1-3 3-3s3 1 3 3v12c0 2 1 3 3 3s3-1 3-3v-12c0-2 1-3 3-3 2-3.8797e-15 3 1 3 3v12c0 2 1 3 3 3s3-1 3-3v-6" stroke="#727273" stroke-linecap="square" stroke-width="2"/>
    <rect y="8" width="30" height="1" fill="#4A64FF"/>
   </g>
  </g>
 </g>
</svg>
