<svg height="16" viewBox="0 0 16 16" width="16" xmlns="http://www.w3.org/2000/svg"><path d="m .96079 15.039c-.92085-.921-.96079-.979-.96079-1.414v-.45382l2.529-2.5364c1.391-1.3957 2.5291-2.5812 2.5291-2.635s-1.1381-1.2393-2.5291-2.6343l-2.529-2.5365v-.4538c0-.4349.039945-.4938.96079-1.4146.92081-.92086.97971-.9608 1.4146-.9608h.4538l2.5365 2.529c1.395 1.391 2.5805 2.5291 2.6343 2.5291s1.2393-1.1381 2.634-2.5291l2.537-2.529h.45382c.43495 0 .49376.03995 1.4146.9608.92.9208.96.9797.96 1.4146v.45382l-2.529 2.5364c-1.391 1.3951-2.529 2.5806-2.529 2.6344 0 .05383 1.1381 1.2393 2.529 2.6343l2.529 2.537v.45382c0 .43495-.03995.49376-.9608 1.4146-.921.92-.979.96-1.414.96h-.45382l-2.5364-2.529c-1.3957-1.391-2.5812-2.529-2.635-2.529s-1.2393 1.138-2.6343 2.529l-2.5365 2.529h-.4538c-.4349 0-.4938-.04-1.4146-.961z" fill="#e0284b"/></svg>