<?xml version="1.0" encoding="UTF-8" standalone="no"?>
<svg id="svg4201" xmlns:rdf="http://www.w3.org/1999/02/22-rdf-syntax-ns#" xmlns="http://www.w3.org/2000/svg" height="16" viewBox="0 0 16 16" width="16" version="1.1" xmlns:cc="http://creativecommons.org/ns#" xmlns:dc="http://purl.org/dc/elements/1.1/">
	<path id="path4213" d="m0.96079 15.039c-0.92085-0.921-0.96079-0.979-0.96079-1.414v-0.45382l2.529-2.5364c1.391-1.3957 2.5291-2.5812 2.5291-2.635s-1.1381-1.2393-2.5291-2.6343l-2.529-2.5365v-0.4538c0-0.4349 0.039945-0.4938 0.96079-1.4146 0.92081-0.92086 0.97971-0.9608 1.4146-0.9608h0.4538l2.5365 2.529c1.395 1.391 2.5805 2.5291 2.6343 2.5291s1.2393-1.1381 2.634-2.5291l2.537-2.529h0.45382c0.43495 0 0.49376 0.03995 1.4146 0.9608 0.92 0.9208 0.96 0.9797 0.96 1.4146v0.45382l-2.529 2.5364c-1.391 1.3951-2.529 2.5806-2.529 2.6344 0 0.05383 1.1381 1.2393 2.529 2.6343l2.529 2.537v0.45382c0 0.43495-0.03995 0.49376-0.9608 1.4146-0.921 0.92-0.979 0.96-1.414 0.96h-0.45382l-2.5364-2.529c-1.3957-1.391-2.5812-2.529-2.635-2.529s-1.2393 1.138-2.6343 2.529l-2.5365 2.529h-0.4538c-0.4349 0-0.4938-0.04-1.4146-0.961z" fill="#e0284b"/>
</svg>
