<?xml version="1.0" encoding="UTF-8" standalone="no"?>
<!-- Imported from http://www.fontsaddict.com/icon/storage-diskette.html
	 Licensed under CC BY 3.0
	 Created by www.freepik.com -->

<svg
   xmlns:dc="http://purl.org/dc/elements/1.1/"
   xmlns:cc="http://creativecommons.org/ns#"
   xmlns:rdf="http://www.w3.org/1999/02/22-rdf-syntax-ns#"
   xmlns:svg="http://www.w3.org/2000/svg"
   xmlns="http://www.w3.org/2000/svg"
   xmlns:sodipodi="http://sodipodi.sourceforge.net/DTD/sodipodi-0.dtd"
   xmlns:inkscape="http://www.inkscape.org/namespaces/inkscape"
   version="1.1"
   id="Capa_1"
   x="0px"
   y="0px"
   width="60.235001"
   height="63.999508"
   viewBox="0 0 60.235 63.999509"
   xml:space="preserve"
   inkscape:version="0.91 r13725"
   sodipodi:docname="floppy.svg"><metadata
     id="metadata4243"><rdf:RDF><cc:Work
         rdf:about=""><dc:format>image/svg+xml</dc:format><dc:type
           rdf:resource="http://purl.org/dc/dcmitype/StillImage" /><dc:title></dc:title></cc:Work></rdf:RDF></metadata><defs
     id="defs4241" /><sodipodi:namedview
     pagecolor="#ffffff"
     bordercolor="#666666"
     borderopacity="1"
     objecttolerance="10"
     gridtolerance="10"
     guidetolerance="10"
     inkscape:pageopacity="0"
     inkscape:pageshadow="2"
     inkscape:window-width="2560"
     inkscape:window-height="1413"
     id="namedview4239"
     showgrid="false"
     fit-margin-top="0"
     fit-margin-left="0"
     fit-margin-right="0"
     fit-margin-bottom="0"
     inkscape:zoom="8.1533333"
     inkscape:cx="36.484661"
     inkscape:cy="49.33248"
     inkscape:window-x="0"
     inkscape:window-y="27"
     inkscape:window-maximized="1"
     inkscape:current-layer="Capa_1"
     showborder="false" /><g
     id="g4254"
     transform="scale(0.23903157,0.23903157)"
     style="fill:#000000;fill-opacity:0.50196081"><path
       inkscape:connector-curvature="0"
       id="path4229"
       d="m 210.391,0 0,67.921 c 0,10.77 -8.82,19.59 -19.6,19.59 l -130.609,0 c -10.77,0 -19.579,-8.82 -19.579,-19.59 l 0,-67.901 -16.71,0 0,0 C 10.739,0.02 0,11.437 0,25.398 l 0,219.263 c 0,12.699 9.769,23.084 21.721,23.084 l 208.554,0 c 11.951,0 21.721,-10.385 21.721,-23.075 l 0,-193.701 L 210.391,0 Z m 3.274,231.295 c 0,9.406 -7.688,17.084 -17.084,17.084 l -138.237,0 c -9.396,0 -17.074,-7.678 -17.074,-17.084 l 0,-71.194 c 0,-9.406 7.678,-17.085 17.074,-17.085 l 138.237,0 c 9.396,0 17.084,7.679 17.084,17.085 l 0,71.194 z"
       style="fill:#000000;fill-opacity:0.50196081" /><path
       inkscape:connector-curvature="0"
       id="path4231"
       d="m 195.114,171.516 -135.324,0 c -0.799,0 -1.447,0.648 -1.447,1.447 l 0,3.521 c 0,0.799 0.648,1.447 1.447,1.447 l 135.324,0 c 0.799,0 1.446,-0.648 1.446,-1.447 l 0,-3.521 c 0,-0.799 -0.647,-1.447 -1.446,-1.447 z"
       style="fill:#000000;fill-opacity:0.50196081" /><path
       inkscape:connector-curvature="0"
       id="path4233"
       d="m 195.114,184.348 -135.324,0 c -0.799,0 -1.447,0.64601 -1.447,1.446 l 0,3.52101 c 0,0.79999 0.648,1.44599 1.447,1.44599 l 135.324,0 c 0.799,0 1.446,-0.646 1.446,-1.44599 l 0,-3.52101 c 0,-0.79999 -0.647,-1.446 -1.446,-1.446 z"
       style="fill:#000000;fill-opacity:0.50196081" /><path
       inkscape:connector-curvature="0"
       id="path4235"
       d="m 195.114,197.178 -135.324,0 c -0.799,0 -1.447,0.648 -1.447,1.447 l 0,3.521 c 0,0.799 0.648,1.447 1.447,1.447 l 135.324,0 c 0.799,0 1.446,-0.648 1.446,-1.447 l 0,-3.521 c 0,-0.799 -0.647,-1.447 -1.446,-1.447 z"
       style="fill:#000000;fill-opacity:0.50196081" /><path
       inkscape:connector-curvature="0"
       id="path4237"
       d="m 171.833,70.294 20.322,0 c 1.979,0 3.598,-1.616 3.598,-3.594 l 0,-66.669 -27.492,0 0,66.692 c 0,1.966 1.61,3.571 3.572,3.571 z"
       style="fill:#000000;fill-opacity:0.50196081" /></g></svg>
