<?xml version="1.0" encoding="UTF-8" standalone="no"?>
<svg
   xmlns:dc="http://purl.org/dc/elements/1.1/"
   xmlns:cc="http://creativecommons.org/ns#"
   xmlns:rdf="http://www.w3.org/1999/02/22-rdf-syntax-ns#"
   xmlns:svg="http://www.w3.org/2000/svg"
   xmlns="http://www.w3.org/2000/svg"
   xmlns:sodipodi="http://sodipodi.sourceforge.net/DTD/sodipodi-0.dtd"
   xmlns:inkscape="http://www.inkscape.org/namespaces/inkscape"
   width="60"
   height="40"
   viewBox="0 0 60 40"
   version="1.1"
   id="svg2"
   inkscape:version="0.91 r13725"
   sodipodi:docname="gear_wheel.svg">
  <metadata
     id="metadata15">
    <rdf:RDF>
      <cc:Work
         rdf:about="">
        <dc:format>image/svg+xml</dc:format>
        <dc:type
           rdf:resource="http://purl.org/dc/dcmitype/StillImage" />
        <dc:title>Shape_11_copy_8 Copy</dc:title>
      </cc:Work>
    </rdf:RDF>
  </metadata>
  <sodipodi:namedview
     pagecolor="#ffffff"
     bordercolor="#666666"
     borderopacity="1"
     objecttolerance="10"
     gridtolerance="10"
     guidetolerance="10"
     inkscape:pageopacity="0"
     inkscape:pageshadow="2"
     inkscape:window-width="1743"
     inkscape:window-height="866"
     id="namedview13"
     showgrid="false"
     inkscape:zoom="11.8"
     inkscape:cx="10"
     inkscape:cy="16.779661"
     inkscape:window-x="0"
     inkscape:window-y="0"
     inkscape:window-maximized="0"
     inkscape:current-layer="svg2" />
  <!-- Generator: Sketch 39.1 (31720) - http://www.bohemiancoding.com/sketch -->
  <title
     id="title4">Shape_11_copy_8 Copy</title>
  <desc
     id="desc6">Created with Sketch.</desc>
  <defs
     id="defs8" />
  <g
     id="main"
     style="opacity:0.4;fill:none;fill-rule:evenodd;stroke:none;stroke-width:1"
     transform="translate(20,10)">
    <g
       id="states-HD"
       transform="translate(-1620,-70)"
       style="fill:#ffffff">
      <path
         d="m 1620,78 0,4 2.26,0 c 0.1824,0.720962 0.4687,1.411538 0.85,2.05 l -1.6,1.6 2.83,2.83 1.6,-1.6 c 0.642,0.381395 1.3359,0.667706 2.06,0.85 l 0,2.26 4,0 0,-2.26 c 0.7241,-0.182294 1.418,-0.468605 2.06,-0.85 l 1.6,1.6 2.83,-2.83 -1.6,-1.6 c 0.3772,-0.640525 0.6633,-1.330495 0.85,-2.05 l 2.26,0 0,-4 -2.26,0 c -0.1867,-0.722675 -0.4727,-1.415952 -0.85,-2.06 l 1.6,-1.6 -2.83,-2.83 -1.6,1.6 c -0.644,-0.377247 -1.3373,-0.663308 -2.06,-0.85 l 0,-2.26 -4,0 0,2.26 c -0.7227,0.186692 -1.4159,0.472753 -2.06,0.85 l -1.6,-1.6 -2.83,2.83 1.6,1.6 c -0.3814,0.641982 -0.6677,1.335865 -0.85,2.06 l -2.26,0 0,0 z m 10,-4 c 3.3137,0 6,2.686291 6,6 0,3.313709 -2.6863,6 -6,6 -3.3137,0 -6,-2.686291 -6,-6 0,-3.313709 2.6863,-6 6,-6 l 0,0 z m 0,3 c 1.6569,0 3,1.343146 3,3 0,1.656854 -1.3431,3 -3,3 -1.6568,0 -3,-1.343146 -3,-3 0,-1.656854 1.3432,-3 3,-3 l 0,0 z m 0,4 c 0.5523,0 1,-0.447715 1,-1 0,-0.552285 -0.4477,-1 -1,-1 -0.5523,0 -1,0.447715 -1,1 0,0.552285 0.4477,1 1,1 l 0,0 z"
         id="Shape_11_copy_8-Copy"
         inkscape:connector-curvature="0" />
    </g>
  </g>
</svg>
