<svg height="512" viewBox="0 0 96 96" width="512" xmlns="http://www.w3.org/2000/svg"><g fill="none" fill-rule="evenodd" transform=""><rect fill="#4a64ff" height="96" rx="9.375" width="96"/><path d="m0 55.2c11.618 0 15.939-15.6 31.933-15.6s16.017 15.6 32.034 15.6c16.016 0 20.923-15.6 32.033-15.6" stroke="#fff" stroke-width="1.5625"/><path d="m12 10.962h19.716v20.238h-19.716zm16.193 9.769-12.676-6.982v14.657zm7.303.748h3.06c.53-.018 1.06.041 1.572.177.491.163.926.46 1.253.856.365.44.634.949.789 1.496.196.711.287 1.446.27 2.182.014.664-.072 1.326-.256 1.964-.164.604-.467 1.162-.886 1.632-.323.34-.728.595-1.177.741-.48.144-.98.208-1.482.19h-3.143zm1.676 1.563v6.119h1.246c.339.013.679-.017 1.011-.089.257-.064.491-.196.678-.38.217-.258.367-.564.436-.891.129-.555.187-1.124.173-1.693.017-.553-.042-1.106-.173-1.645-.084-.332-.248-.64-.477-.897-.209-.218-.479-.37-.776-.435-.453-.074-.912-.104-1.371-.089zm6.535 7.675v-9.238h6.148v1.563h-4.473v2.053h4.161v1.55h-4.161v2.516h4.625v1.556zm9.685 0-2.963-9.238h1.814l2.098 6.839 2.028-6.839h1.772l-2.963 9.238zm5.4 0v-9.238h1.675v9.238zm8.418-3.392 1.62.571c-.164.859-.597 1.645-1.239 2.25-.619.498-1.402.757-2.201.728-1.054.021-2.058-.441-2.714-1.251-.755-.989-1.13-2.207-1.059-3.44-.082-1.28.295-2.547 1.066-3.583.679-.836 1.721-1.31 2.81-1.278.934-.032 1.836.335 2.472 1.007.423.487.714 1.072.844 1.699l-1.654.442c-.073-.435-.289-.834-.616-1.135-.308-.277-.712-.425-1.129-.415-.591-.012-1.15.262-1.495.734-.446.715-.647 1.551-.575 2.386-.077.87.121 1.741.568 2.495.329.478.881.759 1.468.748.432.006.846-.167 1.142-.476.374-.416.615-.932.692-1.482zm2.908 3.392v-9.238h6.141v1.563h-4.473v2.053h4.161v1.55h-4.161v2.516h4.632v1.556zm7.144-3.004 1.627-.177c.047.5.255.972.596 1.346.329.296.765.451 1.211.428.442.033.88-.106 1.219-.387.261-.225.41-.55.408-.891.008-.197-.053-.392-.173-.551-.156-.189-.366-.328-.602-.401-.194-.081-.644-.21-1.336-.407-.698-.144-1.348-.457-1.89-.911-.84-.855-1.003-2.152-.402-3.182.238-.409.598-.736 1.032-.938.513-.225 1.071-.334 1.633-.32.854-.06 1.698.213 2.347.762.541.545.84 1.278.831 2.039l-1.675.082c-.026-.385-.191-.749-.464-1.027-.303-.227-.679-.339-1.059-.312-.409-.021-.812.096-1.143.333-.174.142-.271.355-.263.578-.002.212.089.415.249.557.463.31.986.521 1.537.619.63.144 1.237.368 1.807.666.384.227.7.551.914.938.235.457.349.964.332 1.475.002.519-.134 1.03-.394 1.482-.252.453-.645.815-1.122 1.033-.567.241-1.182.355-1.8.333-.883.061-1.754-.23-2.416-.808-.61-.644-.966-1.481-1.004-2.359zm-33.818-7.512h-1.814l-.72-2.101h-3.302l-.679 2.101h-1.772l3.219-9.239h1.759zm-3.067-3.651-1.142-3.433-1.115 3.433zm3.815 3.651v-9.239h1.626l3.379 6.173v-6.173h1.551v9.239h-1.676l-3.33-6.023v6.023zm15.618 0h-1.814l-.727-2.101h-3.302l-.679 2.101h-1.765l3.212-9.239h1.766zm-3.074-3.651-1.135-3.433-1.115 3.433zm3.849 3.651v-9.164h1.668v7.607h4.147v1.557zm6.515-4.562c-.025-.807.105-1.611.38-2.372.182-.461.442-.889.769-1.265.29-.348.654-.631 1.066-.829.557-.254 1.165-.38 1.779-.367 1.12-.043 2.198.423 2.922 1.264 1.455 2.125 1.458 4.903.006 7.03-.75.801-1.809 1.257-2.918 1.257s-2.167-.456-2.918-1.257c-.775-.987-1.161-2.216-1.086-3.461zm1.716-.061c-.056.842.172 1.679.651 2.379.384.516.998.818 1.648.809.646.009 1.256-.293 1.634-.809.475-.711.699-1.557.637-2.406.063-.837-.156-1.67-.624-2.373-.402-.496-1.014-.784-1.661-.782-.646.003-1.256.296-1.655.796-.47.706-.691 1.544-.63 2.386zm11.292 1.231v-1.564h3.593v3.685c-.431.433-.95.774-1.523.999-.634.28-1.32.425-2.015.428-.796.02-1.581-.191-2.257-.605-.653-.42-1.158-1.028-1.447-1.74-.329-.78-.494-1.617-.484-2.461-.017-.883.168-1.759.54-2.563.332-.722.887-1.323 1.585-1.72.602-.328 1.285-.488 1.973-.462.863-.049 1.715.207 2.402.72.599.518.994 1.225 1.115 1.999l-1.655.347c-.097-.42-.327-.798-.657-1.081-.341-.268-.768-.408-1.205-.394-.671-.024-1.314.263-1.738.775-.475.673-.703 1.486-.643 2.304-.063.871.168 1.739.657 2.468.398.533 1.037.841 1.71.822.363-.005.722-.084 1.053-.231.326-.141.629-.329.9-.557v-1.169z" fill="#fff"/><path d="m47.065 84c-3.873 0-7.013-3.224-7.013-7.2s3.14-7.2 7.013-7.2 7.013 3.224 7.013 7.2c-.003 3.975-3.141 7.197-7.013 7.2zm0-11.52c-2.324 0-4.208 1.934-4.208 4.32s1.884 4.32 4.208 4.32 4.208-1.934 4.208-4.32c-.003-2.385-1.885-4.317-4.208-4.32zm-7.013 11.52h-6.078c-3.873 0-7.013-3.224-7.013-7.2s3.14-7.2 7.013-7.2h6.078v2.88h-6.078c-2.324 0-4.208 1.934-4.208 4.32s1.884 4.32 4.208 4.32h6.078zm41.143-14.4v4.32c0 2.386-1.884 4.32-4.208 4.32s-4.208-1.934-4.208-4.32v-4.32h-2.805v4.32c.004 3.42 2.347 6.367 5.61 7.055v3.025h2.806v-3.025c3.263-.688 5.606-3.635 5.61-7.055v-4.32zm-68.26 14.4v-2.88h8.883c.775 0 1.403-.645 1.403-1.44s-.628-1.44-1.403-1.44h-5.61c-2.324 0-4.208-1.934-4.208-4.32s1.884-4.32 4.208-4.32h8.883v2.88h-8.883c-.775 0-1.403.645-1.403 1.44s.628 1.44 1.403 1.44h5.61c2.324 0 4.208 1.934 4.208 4.32s-1.884 4.32-4.208 4.32zm44.883 0h-2.805v-14.4h8.416c3.098 0 5.61 2.579 5.61 5.76s-2.512 5.76-5.61 5.76h-2.806v-2.88h2.806c1.549 0 2.805-1.289 2.805-2.88s-1.256-2.88-2.805-2.88h-5.611z" fill="#fff"/></g></svg>