<?xml version="1.0" encoding="UTF-8" standalone="no"?>
<svg width="60px" height="40px" viewBox="0 0 60 40" version="1.1" xmlns="http://www.w3.org/2000/svg" xmlns:xlink="http://www.w3.org/1999/xlink">
    <!-- Generator: Sketch 41.1 (35376) - http://www.bohemiancoding.com/sketch -->
    <title>Group 4</title>
    <desc>Created with Sketch.</desc>
    <defs></defs>
    <g id="main" stroke="none" stroke-width="1" fill="none" fill-rule="evenodd" opacity="0.6">
        <g id="pattern-generator-HD" transform="translate(-1820.000000, -20.000000)">
            <g id="Group-4" transform="translate(1820.000000, 20.000000)">
                <rect id="Rectangle_2_copy_129-2" fill="#141416" x="0" y="0" width="60" height="40" rx="4"></rect>
                <path d="M20,19 L40,19 L40,21 L20,21 L20,19 L20,19 Z M29,18 L31,18 L31,22 L29,22 L29,18 L29,18 Z M20,25 L40,25 L40,27 L20,27 L20,25 L20,25 Z M24,24 L26,24 L26,28 L24,28 L24,24 L24,24 Z M20,13 L40,13 L40,15 L20,15 L20,13 L20,13 Z M34,12 L36,12 L36,16 L34,16 L34,12 L34,12 Z" id="Rectangle_2_copy_8" fill="#FFFFFF"></path>
            </g>
        </g>
    </g>
</svg>
