<?xml version="1.0" encoding="UTF-8" standalone="no"?>
<svg id="svg2" xmlns:rdf="http://www.w3.org/1999/02/22-rdf-syntax-ns#" xmlns="http://www.w3.org/2000/svg" height="512px" width="512px" version="1.1" xmlns:cc="http://creativecommons.org/ns#" xmlns:dc="http://purl.org/dc/elements/1.1/" viewBox="0 0 96 96">
	<g id="main" fill-rule="evenodd" fill="none">
		<g id="states-HD" transform="translate(-828 -80)">
			<g id="appico-96" transform="translate(828 80)">
				<rect id="Rectangle-1895-Copy-3" rx="9.375" height="96" width="96" y="0" x="0" fill="#4A64FF"/>
				<path id="Rectangle_4_copy_16-Copy-3" stroke="#fff" stroke-width="1.5625" d="m0 55.2c11.618 0 15.939-15.6 31.933-15.6s16.017 15.6 32.034 15.6c16.016 0 20.923-15.6 32.033-15.6"/>
				<path id="logo-analog-copy-3" fill="#fff" d="m12 10.962h19.716v20.238h-19.716v-20.238zm16.193 9.769l-12.676-6.982v14.657l12.676-7.675zm7.303 0.748h3.06c0.53-0.018 1.06 0.041 1.572 0.177 0.491 0.163 0.926 0.46 1.253 0.856 0.365 0.44 0.634 0.949 0.789 1.496 0.196 0.711 0.287 1.446 0.27 2.182 0.014 0.664-0.072 1.326-0.256 1.964-0.164 0.604-0.467 1.162-0.886 1.632-0.323 0.34-0.728 0.595-1.177 0.741-0.48 0.144-0.98 0.208-1.482 0.19h-3.143v-9.238zm1.676 1.563v6.119h1.246c0.339 0.013 0.679-0.017 1.011-0.089 0.257-0.064 0.491-0.196 0.678-0.38 0.217-0.258 0.367-0.564 0.436-0.891 0.129-0.555 0.187-1.124 0.173-1.693 0.017-0.553-0.042-1.106-0.173-1.645-0.084-0.332-0.248-0.64-0.477-0.897-0.209-0.218-0.479-0.37-0.776-0.435-0.453-0.074-0.912-0.104-1.371-0.089h-0.747zm6.535 7.675v-9.238h6.148v1.563h-4.473v2.053h4.161v1.55h-4.161v2.516h4.625v1.556h-6.3zm9.685 0l-2.963-9.238h1.814l2.098 6.839 2.028-6.839h1.772l-2.963 9.238h-1.786zm5.4 0v-9.238h1.675v9.238h-1.675zm8.418-3.392l1.62 0.571c-0.164 0.859-0.597 1.645-1.239 2.25-0.619 0.498-1.402 0.757-2.201 0.728-1.054 0.021-2.058-0.441-2.714-1.251-0.755-0.989-1.13-2.207-1.059-3.44-0.082-1.28 0.295-2.547 1.066-3.583 0.679-0.836 1.721-1.31 2.81-1.278 0.934-0.032 1.836 0.335 2.472 1.007 0.423 0.487 0.714 1.072 0.844 1.699l-1.654 0.442c-0.073-0.435-0.289-0.834-0.616-1.135-0.308-0.277-0.712-0.425-1.129-0.415-0.591-0.012-1.15 0.262-1.495 0.734-0.446 0.715-0.647 1.551-0.575 2.386-0.077 0.87 0.121 1.741 0.568 2.495 0.329 0.478 0.881 0.759 1.468 0.748 0.432 0.006 0.846-0.167 1.142-0.476 0.374-0.416 0.615-0.932 0.692-1.482zm2.908 3.392v-9.238h6.141v1.563h-4.473v2.053h4.161v1.55h-4.161v2.516h4.632v1.556h-6.3zm7.144-3.004l1.627-0.177c0.047 0.5 0.255 0.972 0.596 1.346 0.329 0.296 0.765 0.451 1.211 0.428 0.442 0.033 0.88-0.106 1.219-0.387 0.261-0.225 0.41-0.55 0.408-0.891 0.008-0.197-0.053-0.392-0.173-0.551-0.156-0.189-0.366-0.328-0.602-0.401-0.194-0.081-0.644-0.21-1.336-0.407-0.698-0.144-1.348-0.457-1.89-0.911-0.84-0.855-1.003-2.152-0.402-3.182 0.238-0.409 0.598-0.736 1.032-0.938 0.513-0.225 1.071-0.334 1.633-0.32 0.854-0.06 1.698 0.213 2.347 0.762 0.541 0.545 0.84 1.278 0.831 2.039l-1.675 0.082c-0.026-0.385-0.191-0.749-0.464-1.027-0.303-0.227-0.679-0.339-1.059-0.312-0.409-0.021-0.812 0.096-1.143 0.333-0.174 0.142-0.271 0.355-0.263 0.578-0.002 0.212 0.089 0.415 0.249 0.557 0.463 0.31 0.986 0.521 1.537 0.619 0.63 0.144 1.237 0.368 1.807 0.666 0.384 0.227 0.7 0.551 0.914 0.938 0.235 0.457 0.349 0.964 0.332 1.475 0.002 0.519-0.134 1.03-0.394 1.482-0.252 0.453-0.645 0.815-1.122 1.033-0.567 0.241-1.182 0.355-1.8 0.333-0.883 0.061-1.754-0.23-2.416-0.808-0.61-0.644-0.966-1.481-1.004-2.359zm-33.818-7.512h-1.814l-0.72-2.101h-3.302l-0.679 2.101h-1.772l3.219-9.239h1.759l3.309 9.239zm-3.067-3.651l-1.142-3.433-1.115 3.433h2.257zm3.815 3.651v-9.239h1.626l3.379 6.173v-6.173h1.551v9.239h-1.676l-3.33-6.023v6.023h-1.55zm15.618 0h-1.814l-0.727-2.101h-3.302l-0.679 2.101h-1.765l3.212-9.239h1.766l3.309 9.239zm-3.074-3.651l-1.135-3.433-1.115 3.433h2.25zm3.849 3.651v-9.164h1.668v7.607h4.147v1.557h-5.815zm6.515-4.562c-0.025-0.807 0.105-1.611 0.38-2.372 0.182-0.461 0.442-0.889 0.769-1.265 0.29-0.348 0.654-0.631 1.066-0.829 0.557-0.254 1.165-0.38 1.779-0.367 1.12-0.043 2.198 0.423 2.922 1.264 1.455 2.125 1.458 4.903 0.006 7.03-0.75 0.801-1.809 1.257-2.918 1.257s-2.167-0.456-2.918-1.257c-0.775-0.987-1.161-2.216-1.086-3.461zm1.716-0.061c-0.056 0.842 0.172 1.679 0.651 2.379 0.384 0.516 0.998 0.818 1.648 0.809 0.646 0.009 1.256-0.293 1.634-0.809 0.475-0.711 0.699-1.557 0.637-2.406 0.063-0.837-0.156-1.67-0.624-2.373-0.402-0.496-1.014-0.784-1.661-0.782-0.646 0.003-1.256 0.296-1.655 0.796-0.47 0.706-0.691 1.544-0.63 2.386zm11.292 1.231v-1.564h3.593v3.685c-0.431 0.433-0.95 0.774-1.523 0.999-0.634 0.28-1.32 0.425-2.015 0.428-0.796 0.02-1.581-0.191-2.257-0.605-0.653-0.42-1.158-1.028-1.447-1.74-0.329-0.78-0.494-1.617-0.484-2.461-0.017-0.883 0.168-1.759 0.54-2.563 0.332-0.722 0.887-1.323 1.585-1.72 0.602-0.328 1.285-0.488 1.973-0.462 0.863-0.049 1.715 0.207 2.402 0.72 0.599 0.518 0.994 1.225 1.115 1.999l-1.655 0.347c-0.097-0.42-0.327-0.798-0.657-1.081-0.341-0.268-0.768-0.408-1.205-0.394-0.671-0.024-1.314 0.263-1.738 0.775-0.475 0.673-0.703 1.486-0.643 2.304-0.063 0.871 0.168 1.739 0.657 2.468 0.398 0.533 1.037 0.841 1.71 0.822 0.363-0.005 0.722-0.084 1.053-0.231 0.326-0.141 0.629-0.329 0.9-0.557v-1.169h-1.904z"/>
				<path id="logo-copy-3" fill="#fff" d="m47.065 84c-3.873 0-7.013-3.224-7.013-7.2s3.14-7.2 7.013-7.2 7.013 3.224 7.013 7.2c-0.003 3.975-3.141 7.197-7.013 7.2zm0-11.52c-2.324 0-4.208 1.934-4.208 4.32s1.884 4.32 4.208 4.32 4.208-1.934 4.208-4.32c-0.003-2.385-1.885-4.317-4.208-4.32zm-7.013 11.52h-6.078c-3.873 0-7.013-3.224-7.013-7.2s3.14-7.2 7.013-7.2h6.078v2.88h-6.078c-2.324 0-4.208 1.934-4.208 4.32s1.884 4.32 4.208 4.32h6.078v2.88zm41.143-14.4v4.32c0 2.386-1.884 4.32-4.208 4.32s-4.208-1.934-4.208-4.32v-4.32h-2.805v4.32c0.004 3.42 2.347 6.367 5.61 7.055v3.025h2.806v-3.025c3.263-0.688 5.606-3.635 5.61-7.055v-4.32h-2.805zm-68.26 14.4v-2.88h8.883c0.775 0 1.403-0.645 1.403-1.44s-0.628-1.44-1.403-1.44h-5.61c-2.324 0-4.208-1.934-4.208-4.32s1.884-4.32 4.208-4.32h8.883v2.88h-8.883c-0.775 0-1.403 0.645-1.403 1.44s0.628 1.44 1.403 1.44h5.61c2.324 0 4.208 1.934 4.208 4.32s-1.884 4.32-4.208 4.32h-8.883zm44.883 0h-2.805v-14.4h8.416c3.098 0 5.61 2.579 5.61 5.76s-2.512 5.76-5.61 5.76h-2.806v-2.88h2.806c1.549 0 2.805-1.289 2.805-2.88s-1.256-2.88-2.805-2.88h-5.611v11.52z"/>
			</g>
		</g>
	</g>
</svg>
