<svg height="24" width="24" xmlns="http://www.w3.org/2000/svg" xmlns:xlink="http://www.w3.org/1999/xlink"><radialGradient id="a" cx="15" cy="20.5" gradientTransform="matrix(1.8793 .000000039617 -.0000050558 .34168 -17.189 14.996)" gradientUnits="userSpaceOnUse" r="5.8534"><stop offset="0" stop-color="#888a85" stop-opacity=".52995"/><stop offset="1" stop-color="#888a85" stop-opacity="0"/></radialGradient><g transform="translate(1.0007 -1)"><path d="m21.999 22a11 2 0 0 1 -22 0 11 2 0 1 1  22 0z" fill="url(#a)" fill-rule="evenodd"/><path d="m10 10 1.5-1.5 3 3-1.5 1.5z" fill="#c00" stroke="#a40000"/><path d="m1.5 21.5 2-2" fill="none" stroke="#888a85" stroke-linecap="round"/><path d="m9.5 9.5.5 2.5-6 6-2 2.5.5.5 2.5-2 6-6 2.5.5z" fill="#c00" stroke="#a40000" stroke-linejoin="round"/><path d="m16.5 2.5-.955.9548-.045 1.0452-.5.5-.567-.4332-3.433 3.4332 4 4 3.5-3.5-.5-.5.5-.5h1l1-1c-1.5-.5-3.5-2.5-4-4z" fill="#c00" stroke="#a40000" stroke-linejoin="round"/></g></svg>