<?xml version="1.0" encoding="UTF-8"?>
<svg width="30px" height="20px" viewBox="0 0 30 20" version="1.1" xmlns="http://www.w3.org/2000/svg" xmlns:xlink="http://www.w3.org/1999/xlink">
    <defs></defs>
    <g id="main" stroke="none" stroke-width="1" fill="none" fill-rule="evenodd">
        <g id="gating-icons" transform="translate(-1640.000000, -590.000000)">
            <g id="area" transform="translate(1640.000000, 591.000000)">
                <rect id="Rectangle" fill="#727273" opacity="0.600000024" x="9" y="1" width="6" height="8"></rect>
                <rect id="Rectangle-Copy-2" fill="#727273" opacity="0.600000024" x="21" y="1" width="6" height="8"></rect>
                <rect id="Rectangle-Copy" fill="#727273" opacity="0.600000024" x="3" y="9" width="6" height="8"></rect>
                <rect id="Rectangle-Copy-3" fill="#727273" opacity="0.600000024" x="15" y="9" width="6" height="8"></rect>
                <path d="M3,9 C3,9 3,7.5112343 3,3 C3,1 4,3.63797881e-12 6,3.63797881e-12 C8,3.63797881e-12 9,1 9,3 C9,5 9,13 9,15 C9,17 10,18 12,18 C14,18 15,17 15,15 C15,13 15,5 15,3 C15,1 16,3.65268579e-12 18,3.64886853e-12 C20,3.64498882e-12 21,1 21,3 C21,5 21,12 21,15 C21,17 22,18 24,18 C26,18 27,17 27,15 C27,12 27,11.5 27,9" id="Line-Copy-9" stroke="#727273" stroke-width="2" stroke-linecap="square" transform="translate(15.000000, 9.000000) scale(1, -1) rotate(-180.000000) translate(-15.000000, -9.000000) "></path>
                <rect id="Rectangle_2_copy_122-Copy-19" fill="#4A64FF" x="0" y="8" width="30" height="1"></rect>
            </g>
        </g>
    </g>
</svg>