<?xml version="1.0" encoding="UTF-8" standalone="no"?>
<svg width="30px" height="20px" viewBox="0 0 30 20" version="1.1" xmlns="http://www.w3.org/2000/svg" xmlns:xlink="http://www.w3.org/1999/xlink">
    <!-- Generator: Sketch 41 (35326) - http://www.bohemiancoding.com/sketch -->
    <title>min</title>
    <desc>Created with Sketch.</desc>
    <defs></defs>
    <g id="main" stroke="none" stroke-width="1" fill="none" fill-rule="evenodd">
        <g id="gating-icons-HD" transform="translate(-1640.000000, -390.000000)">
            <g id="min" transform="translate(1640.000000, 391.000000)">
                <path d="M1,16 C1,17 2,18 4,18 C6,18 7,16 7,16 L7,2 C7,2 10,2 11,2 C11,1 12,1.49584726e-13 14,1.45661261e-13 C16,1.42108547e-13 17,1 17,2 C17,3 17,16 17,16 C17,16 19,16 21,16 C21,16.9790159 22,18 24,18 C26,18 27,17 27,16 C27,13 27,4.5 27,2 C27,0 29,0 29,0" id="Line-Copy-11" stroke="#727273" stroke-width="2" stroke-linecap="square" transform="translate(15.000000, 9.000000) rotate(-180.000000) translate(-15.000000, -9.000000) "></path>
                <rect id="Rectangle_2_copy_122-Copy-23" fill="#4A64FF" x="0" y="18" width="30" height="1"></rect>
            </g>
        </g>
    </g>
</svg>