<?xml version="1.0" encoding="UTF-8"?>
<svg width="77px" height="15px" version="1.1" viewBox="0 0 77 15" xmlns="http://www.w3.org/2000/svg">
 <g fill="#000" fill-rule="evenodd">
  <path d="m37.5 15c-4.1421 0-7.5-3.3579-7.5-7.5s3.3579-7.5 7.5-7.5 7.5 3.3579 7.5 7.5c-0.0027579 4.141-3.359 7.4972-7.5 7.5zm0-12c-2.4853 0-4.5 2.0147-4.5 4.5s2.0147 4.5 4.5 4.5 4.5-2.0147 4.5-4.5c-0.0027556-2.4841-2.0159-4.4972-4.5-4.5zm-7.5 12h-6.5c-4.1421 0-7.5-3.3579-7.5-7.5s3.3579-7.5 7.5-7.5h6.5v3h-6.5c-2.4853 0-4.5 2.0147-4.5 4.5s2.0147 4.5 4.5 4.5h6.5v3zm44-15v4.5c0 2.4853-2.0147 4.5-4.5 4.5s-4.5-2.0147-4.5-4.5v-4.5h-3v4.5c0.0043923 3.5625 2.5104 6.632 6 7.349v3.151h3v-3.151c3.4896-0.71705 5.9956-3.7865 6-7.349v-4.5h-3zm-73 15v-3h9.5c0.82843 0 1.5-0.67157 1.5-1.5s-0.67157-1.5-1.5-1.5h-6c-2.4853 0-4.5-2.0147-4.5-4.5s2.0147-4.5 4.5-4.5h9.5v3h-9.5c-0.82843 0-1.5 0.67157-1.5 1.5s0.67157 1.5 1.5 1.5h6c2.4853 0 4.5 2.0147 4.5 4.5s-2.0147 4.5-4.5 4.5h-9.5zm48 0h-3v-15h9c3.3137 0 6 2.6863 6 6s-2.6863 6-6 6h-3v-3h3c1.6569 0 3-1.3431 3-3s-1.3431-3-3-3h-6v12z"/>
 </g>
</svg>
