<?xml version="1.0" encoding="UTF-8"?>
<svg width="32" height="32" version="1.1" viewBox="0 0 32 32" xmlns="http://www.w3.org/2000/svg">
 <g fill="#000" opacity=".6" transform="translate(6 6)">
  <g transform="translate(-168 -844)">
   <path d="m168 852v4h2.26c0.18 0.72 0.47 1.41 0.85 2.05l-1.6 1.6 2.83 2.83 1.6-1.6c0.64 0.38 1.34 0.67 2.06 0.85v2.26h4v-2.26c0.72-0.18 1.42-0.47 2.06-0.85l1.6 1.6 2.83-2.83-1.6-1.6c0.38-0.64 0.66-1.33 0.85-2.05h2.26v-4h-2.26c-0.19-0.72-0.47-1.42-0.85-2.06l1.6-1.6-2.83-2.83-1.6 1.6c-0.64-0.38-1.34-0.66-2.06-0.85v-2.26h-4v2.26c-0.72 0.19-1.42 0.47-2.06 0.85l-1.6-1.6-2.83 2.83 1.6 1.6c-0.38 0.64-0.67 1.34-0.85 2.06zm10-4c3.31 0 6 2.69 6 6s-2.69 6-6 6-6-2.69-6-6 2.69-6 6-6zm0 3c1.66 0 3 1.34 3 3s-1.34 3-3 3-3-1.34-3-3 1.34-3 3-3zm0 4c0.55 0 1-0.45 1-1s-0.45-1-1-1-1 0.45-1 1 0.45 1 1 1z" fill-rule="evenodd"/>
  </g>
 </g>
</svg>
