<?xml version="1.0" encoding="UTF-8" standalone="no"?>
<svg
   xmlns:dc="http://purl.org/dc/elements/1.1/"
   xmlns:cc="http://creativecommons.org/ns#"
   xmlns:rdf="http://www.w3.org/1999/02/22-rdf-syntax-ns#"
   xmlns:svg="http://www.w3.org/2000/svg"
   xmlns="http://www.w3.org/2000/svg"
   xmlns:sodipodi="http://sodipodi.sourceforge.net/DTD/sodipodi-0.dtd"
   xmlns:inkscape="http://www.inkscape.org/namespaces/inkscape"
   width="21"
   height="21"
   viewBox="0 0 21 21"
   fill="none"
   version="1.1"
   id="svg4"
   sodipodi:docname="delete.svg"
   inkscape:version="0.92.5 (2060ec1f9f, 2020-04-08)">
  <metadata
     id="metadata10">
    <rdf:RDF>
      <cc:Work
         rdf:about="">
        <dc:format>image/svg+xml</dc:format>
        <dc:type
           rdf:resource="http://purl.org/dc/dcmitype/StillImage" />
      </cc:Work>
    </rdf:RDF>
  </metadata>
  <defs
     id="defs8" />
  <sodipodi:namedview
     pagecolor="#ffffff"
     bordercolor="#666666"
     borderopacity="1"
     objecttolerance="10"
     gridtolerance="10"
     guidetolerance="10"
     inkscape:pageopacity="0"
     inkscape:pageshadow="2"
     inkscape:window-width="974"
     inkscape:window-height="876"
     id="namedview6"
     showgrid="false"
     inkscape:zoom="11.238095"
     inkscape:cx="10.5"
     inkscape:cy="10.5"
     inkscape:window-x="0"
     inkscape:window-y="0"
     inkscape:window-maximized="0"
     inkscape:current-layer="svg4" />
  <path
     d="M15.625 4.5H20.625V6.5H18.625V19.5C18.625 19.7652 18.5196 20.0196 18.3321 20.2071C18.1446 20.3946 17.8902 20.5 17.625 20.5H3.625C3.35978 20.5 3.10543 20.3946 2.91789 20.2071C2.73036 20.0196 2.625 19.7652 2.625 19.5V6.5H0.625V4.5H5.625V1.5C5.625 1.23478 5.73036 0.98043 5.91789 0.792893C6.10543 0.605357 6.35978 0.5 6.625 0.5H14.625C14.8902 0.5 15.1446 0.605357 15.3321 0.792893C15.5196 0.98043 15.625 1.23478 15.625 1.5V4.5ZM16.625 6.5H4.625V18.5H16.625V6.5ZM7.625 9.5H9.625V15.5H7.625V9.5ZM11.625 9.5H13.625V15.5H11.625V9.5ZM7.625 2.5V4.5H13.625V2.5H7.625Z"
     fill="#5E6773"
     id="path" />
</svg>
