<?xml version="1.0" encoding="UTF-8" standalone="no"?>
<svg
   xmlns:dc="http://purl.org/dc/elements/1.1/"
   xmlns:cc="http://creativecommons.org/ns#"
   xmlns:rdf="http://www.w3.org/1999/02/22-rdf-syntax-ns#"
   xmlns:svg="http://www.w3.org/2000/svg"
   xmlns="http://www.w3.org/2000/svg"
   xmlns:sodipodi="http://sodipodi.sourceforge.net/DTD/sodipodi-0.dtd"
   xmlns:inkscape="http://www.inkscape.org/namespaces/inkscape"
   width="20"
   height="21"
   viewBox="0 0 20 21"
   fill="none"
   version="1.1"
   id="svg4"
   sodipodi:docname="gear_wheel.svg"
   inkscape:version="0.92.5 (2060ec1f9f, 2020-04-08)">
  <metadata
     id="metadata10">
    <rdf:RDF>
      <cc:Work
         rdf:about="">
        <dc:format>image/svg+xml</dc:format>
        <dc:type
           rdf:resource="http://purl.org/dc/dcmitype/StillImage" />
      </cc:Work>
    </rdf:RDF>
  </metadata>
  <defs
     id="defs8" />
  <sodipodi:namedview
     pagecolor="#ffffff"
     bordercolor="#666666"
     borderopacity="1"
     objecttolerance="10"
     gridtolerance="10"
     guidetolerance="10"
     inkscape:pageopacity="0"
     inkscape:pageshadow="2"
     inkscape:window-width="879"
     inkscape:window-height="865"
     id="namedview6"
     showgrid="false"
     inkscape:zoom="11.238095"
     inkscape:cx="10"
     inkscape:cy="10.5"
     inkscape:window-x="0"
     inkscape:window-y="0"
     inkscape:window-maximized="0"
     inkscape:current-layer="svg4" />
  <path
     d="M1.215 15.5001C0.79227 14.7691 0.463664 13.9875 0.237 13.1741C0.730307 12.9232 1.14459 12.5407 1.43403 12.069C1.72346 11.5972 1.87676 11.0546 1.87697 10.5012C1.87718 9.94773 1.72428 9.40502 1.4352 8.93307C1.14612 8.46112 0.732119 8.07834 0.239 7.82707C0.691036 6.19255 1.55173 4.70002 2.74 3.49007C3.20409 3.79179 3.74262 3.95923 4.29598 3.97385C4.84934 3.98847 5.39595 3.8497 5.87533 3.5729C6.35471 3.2961 6.74815 2.89207 7.01213 2.40551C7.2761 1.91895 7.40031 1.36884 7.371 0.816067C9.01311 0.391689 10.7362 0.392378 12.378 0.818067C12.349 1.37083 12.4734 1.92086 12.7376 2.40728C13.0018 2.89369 13.3954 3.29754 13.8748 3.57413C14.3543 3.85071 14.9009 3.98925 15.4543 3.97442C16.0076 3.95958 16.546 3.79195 17.01 3.49007C17.589 4.08007 18.103 4.75107 18.535 5.50007C18.968 6.24907 19.292 7.03007 19.513 7.82607C19.0197 8.07697 18.6054 8.45944 18.316 8.93117C18.0265 9.4029 17.8732 9.94551 17.873 10.499C17.8728 11.0524 18.0257 11.5951 18.3148 12.0671C18.6039 12.539 19.0179 12.9218 19.511 13.1731C19.059 14.8076 18.1983 16.3001 17.01 17.5101C16.5459 17.2083 16.0074 17.0409 15.454 17.0263C14.9007 17.0117 14.354 17.1504 13.8747 17.4272C13.3953 17.704 13.0018 18.1081 12.7379 18.5946C12.4739 19.0812 12.3497 19.6313 12.379 20.1841C10.7369 20.6084 9.01377 20.6078 7.372 20.1821C7.40105 19.6293 7.2766 19.0793 7.01242 18.5929C6.74824 18.1064 6.35464 17.7026 5.87517 17.426C5.3957 17.1494 4.84905 17.0109 4.29573 17.0257C3.7424 17.0406 3.20396 17.2082 2.74 17.5101C2.14899 16.907 1.63659 16.2317 1.215 15.5001ZM6.875 15.6961C7.94063 16.3107 8.74185 17.2971 9.125 18.4661C9.624 18.5131 10.125 18.5141 10.624 18.4671C11.0074 17.2979 11.809 16.3115 12.875 15.6971C13.9402 15.0808 15.1955 14.8795 16.4 15.1321C16.69 14.7241 16.94 14.2891 17.148 13.8341C16.3274 12.9175 15.8741 11.7303 15.875 10.5001C15.875 9.24007 16.345 8.06307 17.148 7.16607C16.9385 6.71122 16.6875 6.2767 16.398 5.86807C15.1943 6.12038 13.9398 5.91954 12.875 5.30407C11.8094 4.68944 11.0082 3.70305 10.625 2.53407C10.126 2.48707 9.625 2.48607 9.126 2.53307C8.7426 3.70221 7.941 4.68863 6.875 5.30307C5.80978 5.91938 4.55448 6.12059 3.35 5.86807C3.06056 6.27635 2.81013 6.71093 2.602 7.16607C3.42257 8.08263 3.87588 9.26986 3.875 10.5001C3.875 11.7601 3.405 12.9371 2.602 13.8341C2.81147 14.2889 3.06254 14.7234 3.352 15.1321C4.55572 14.8798 5.81021 15.0806 6.875 15.6961ZM9.875 13.5001C9.07935 13.5001 8.31629 13.184 7.75368 12.6214C7.19107 12.0588 6.875 11.2957 6.875 10.5001C6.875 9.70442 7.19107 8.94136 7.75368 8.37875C8.31629 7.81614 9.07935 7.50007 9.875 7.50007C10.6706 7.50007 11.4337 7.81614 11.9963 8.37875C12.5589 8.94136 12.875 9.70442 12.875 10.5001C12.875 11.2957 12.5589 12.0588 11.9963 12.6214C11.4337 13.184 10.6706 13.5001 9.875 13.5001ZM9.875 11.5001C10.1402 11.5001 10.3946 11.3947 10.5821 11.2072C10.7696 11.0196 10.875 10.7653 10.875 10.5001C10.875 10.2348 10.7696 9.9805 10.5821 9.79296C10.3946 9.60542 10.1402 9.50007 9.875 9.50007C9.60978 9.50007 9.35543 9.60542 9.16789 9.79296C8.98036 9.9805 8.875 10.2348 8.875 10.5001C8.875 10.7653 8.98036 11.0196 9.16789 11.2072C9.35543 11.3947 9.60978 11.5001 9.875 11.5001Z"
     fill="#5E6773"
     id="path" />
</svg>
