<?xml version="1.0" encoding="UTF-8" standalone="no"?>
<svg
   xmlns:dc="http://purl.org/dc/elements/1.1/"
   xmlns:cc="http://creativecommons.org/ns#"
   xmlns:rdf="http://www.w3.org/1999/02/22-rdf-syntax-ns#"
   xmlns:svg="http://www.w3.org/2000/svg"
   xmlns="http://www.w3.org/2000/svg"
   xmlns:sodipodi="http://sodipodi.sourceforge.net/DTD/sodipodi-0.dtd"
   xmlns:inkscape="http://www.inkscape.org/namespaces/inkscape"
   width="21"
   height="21"
   viewBox="0 0 21 21"
   fill="none"
   version="1.1"
   id="svg4"
   sodipodi:docname="info.svg"
   inkscape:version="0.92.5 (2060ec1f9f, 2020-04-08)">
  <metadata
     id="metadata10">
    <rdf:RDF>
      <cc:Work
         rdf:about="">
        <dc:format>image/svg+xml</dc:format>
        <dc:type
           rdf:resource="http://purl.org/dc/dcmitype/StillImage" />
      </cc:Work>
    </rdf:RDF>
  </metadata>
  <defs
     id="defs8" />
  <sodipodi:namedview
     pagecolor="#ffffff"
     bordercolor="#666666"
     borderopacity="1"
     objecttolerance="10"
     gridtolerance="10"
     guidetolerance="10"
     inkscape:pageopacity="0"
     inkscape:pageshadow="2"
     inkscape:window-width="851"
     inkscape:window-height="917"
     id="namedview6"
     showgrid="false"
     inkscape:zoom="11.238095"
     inkscape:cx="10.5"
     inkscape:cy="10.5"
     inkscape:window-x="0"
     inkscape:window-y="0"
     inkscape:window-maximized="0"
     inkscape:current-layer="svg4" />
  <path
     d="M10.125 20.5C4.602 20.5 0.125 16.023 0.125 10.5C0.125 4.977 4.602 0.5 10.125 0.5C15.648 0.5 20.125 4.977 20.125 10.5C20.125 16.023 15.648 20.5 10.125 20.5ZM10.125 18.5C12.2467 18.5 14.2816 17.6571 15.7819 16.1569C17.2821 14.6566 18.125 12.6217 18.125 10.5C18.125 8.37827 17.2821 6.34344 15.7819 4.84315C14.2816 3.34285 12.2467 2.5 10.125 2.5C8.00327 2.5 5.96844 3.34285 4.46815 4.84315C2.96785 6.34344 2.125 8.37827 2.125 10.5C2.125 12.6217 2.96785 14.6566 4.46815 16.1569C5.96844 17.6571 8.00327 18.5 10.125 18.5ZM9.125 5.5H11.125V7.5H9.125V5.5ZM9.125 9.5H11.125V15.5H9.125V9.5Z"
     fill="#5E6773"
     id="path" />
</svg>
