<svg width="21" height="21" viewBox="0 0 21 21" fill="none" xmlns="http://www.w3.org/2000/svg">
<path d="M16.406 15.117L20.689 19.399L19.274 20.814L14.992 16.531C13.3987 17.8082 11.417 18.5029 9.375 18.5C4.407 18.5 0.375 14.468 0.375 9.5C0.375 4.532 4.407 0.5 9.375 0.5C14.343 0.5 18.375 4.532 18.375 9.5C18.3779 11.542 17.6832 13.5237 16.406 15.117ZM14.4 14.375C15.6691 13.0699 16.3779 11.3204 16.375 9.5C16.375 5.632 13.242 2.5 9.375 2.5C5.507 2.5 2.375 5.632 2.375 9.5C2.375 13.367 5.507 16.5 9.375 16.5C11.1954 16.5029 12.9449 15.7941 14.25 14.525L14.4 14.375Z" fill="#5E6773" id="path"/>
</svg>
