<?xml version="1.0" encoding="UTF-8"?>
<svg width="100px" height="100px" version="1.1" viewBox="0 0 100 100" xmlns="http://www.w3.org/2000/svg" xmlns:xlink="http://www.w3.org/1999/xlink">
 <defs>
  <path id="icon-path" d="m6.3598 4.5707c14.547-3.0471 29.093-4.5707 43.64-4.5707s29.093 1.5236 43.64 4.5707l5e-7 -2.45e-6c3.7057 0.77624 6.3598 4.0439 6.3598 7.8301l1.8e-6 75.198c0 3.7861-2.6541 7.0538-6.3598 7.8301-14.547 3.0471-29.093 4.5707-43.64 4.5707s-29.093-1.5236-43.64-4.5707l-5.2e-7 2.4e-6c-3.7057-0.77624-6.3598-4.0439-6.3598-7.8301l-1.7712e-6 -75.198c0-3.7861 2.6541-7.0538 6.3598-7.8301z"/>
  <path id="center-path" d="m3.123 3.2348c9.5966-2.1566 21.889-3.2348 36.877-3.2348s27.28 1.0783 36.877 3.2348l-1e-7 5.2e-7c1.8257 0.41027 3.123 2.0314 3.123 3.9027l-1.17e-5 65.725c0 1.8712-1.2973 3.4924-3.123 3.9027-9.5966 2.1566-21.889 3.2348-36.877 3.2348s-27.28-1.0783-36.877-3.2348l1.1e-7 -5e-7c-1.8257-0.41027-3.123-2.0314-3.123-3.9027l1.1664e-5 -65.725c0-1.8712 1.2973-3.4924 3.123-3.9027z"/>
 </defs>
 <g fill="none" fill-rule="evenodd">
  <g transform="translate(-440 -130)">
   <g transform="translate(440 130)">
    <use id="icon-path-color" transform="translate(50 50) rotate(90) translate(-50 -50)" fill="#4A64FF" xlink:href="#icon-path"/>
     <g transform="translate(10 10)" fill-rule="evenodd">
      <use transform="translate(40 40) rotate(90) translate(-40 -40)" fill="#141416" xlink:href="#center-path"/>
      <polygon id="top-center-polygon" points="0 0 80 0 80 54 0 54" fill="#4A64FF" opacity=".8"/>
	  <polygon id="center-polygon" points="0 54 80 54 80 56 0 56" fill="#4A64FF" opacity="1"/>
	  <polygon id="bottom-center-polygon" points="0 56 80 56 80 80 0 80" fill="#4A64FF" opacity=".8"/>
     </g>
    <path id="left-path" transform="translate(3.4781 50) rotate(90) translate(-3.4781 -50)" d="m-34.068 42.09c9.6921 2.2586 22.207 3.3879 37.546 3.3879s27.854-1.1293 37.546-3.3879l-4e-6 -1.74e-5c1.0758-0.25069 2.1511 0.41815 2.4017 1.4939 0.03468 0.14882 0.052191 0.30112 0.052191 0.45392l-1e-6 6.3026c0 1.8712-1.2973 3.4924-3.123 3.9027-9.5966 2.1566-21.889 3.2348-36.877 3.2348s-27.28-1.0783-36.877-3.2348l1e-7 -6e-7c-1.8257-0.41027-3.123-2.0314-3.123-3.9027l-1.93e-5 -6.3026c0-1.1046 0.89544-2 2-2 0.1528 0 0.3051 0.017511 0.45392 0.052191z" fill="#141416" opacity=".2"/>
    <path id="right-path" transform="translate(96.478 50) scale(-1 1) rotate(90) translate(-96.478 -50)" d="m58.932 42.09c9.6921 2.2586 22.207 3.3879 37.546 3.3879s27.854-1.1293 37.546-3.3879l-4e-6 -1.74e-5c1.0758-0.25069 2.1511 0.41815 2.4017 1.4939 0.03468 0.14882 0.052191 0.30112 0.052191 0.45392l-1e-6 6.3026c0 1.8712-1.2973 3.4924-3.123 3.9027-9.5966 2.1566-21.889 3.2348-36.877 3.2348s-27.28-1.0783-36.877-3.2348l1e-7 -6e-7c-1.8257-0.41027-3.123-2.0314-3.123-3.9027l-1.93e-5 -6.3026c0-1.1046 0.89544-2 2-2 0.1528 0 0.3051 0.017511 0.45392 0.052191z" fill="#141416" opacity=".2"/>
   </g>
  </g>
 </g>
</svg>
