<?xml version="1.0" encoding="UTF-8"?>
<svg width="30px" height="20px" version="1.1" viewBox="0 0 30 20" xmlns="http://www.w3.org/2000/svg">
 <g fill="none" fill-rule="evenodd">
  <g transform="translate(-1690 -350)">
   <g transform="translate(1690 351)">
    <path transform="translate(15 9) rotate(180) translate(-15 -9)" d="m1 16c0 1 1 2 3 2s3-2 3-2v-14h4c0-1 1-2 3-2 2-3.5527e-15 3 1 3 2v14h4c0 0.97902 1 2 3 2s3-1 3-2v-14c0-2 2-2 2-2" stroke="#727273" stroke-linecap="square" stroke-width="2"/>
    <rect y="2" width="30" height="1" fill="#4A64FF"/>
   </g>
  </g>
 </g>
</svg>
