<?xml version="1.0" encoding="UTF-8" standalone="no"?>
<svg
   width="96"
   height="96"
   viewBox="0 0 96 96"
   fill="none"
   version="1.1"
   id="svg23"
   sodipodi:docname="swiot_icon.svg"
   inkscape:version="1.1.2 (0a00cf5339, 2022-02-04)"
   xmlns:inkscape="http://www.inkscape.org/namespaces/inkscape"
   xmlns:sodipodi="http://sodipodi.sourceforge.net/DTD/sodipodi-0.dtd"
   xmlns="http://www.w3.org/2000/svg"
   xmlns:svg="http://www.w3.org/2000/svg">
  <sodipodi:namedview
     id="namedview25"
     pagecolor="#ffffff"
     bordercolor="#666666"
     borderopacity="1.0"
     inkscape:pageshadow="2"
     inkscape:pageopacity="0.0"
     inkscape:pagecheckerboard="0"
     showgrid="false"
     inkscape:zoom="8"
     inkscape:cx="49.1875"
     inkscape:cy="46.5"
     inkscape:window-width="1920"
     inkscape:window-height="1043"
     inkscape:window-x="1920"
     inkscape:window-y="0"
     inkscape:window-maximized="1"
     inkscape:current-layer="Frame 95" />
  <g
     id="block">
    <g
       clip-path="url(#clip0_218_29904)"
       id="g15">
      <rect
         width="95.04"
         height="96"
         rx="8"
         fill="#4A64FF"
         id="rect2" />
      <path
         id="dark copy"
         opacity="0.2"
         d="M0 8H4C6.20914 8 8 9.79086 8 12V84C8 86.2091 6.20914 88 4 88H0V8Z"
         fill="#272730" />
      <g
         id="Frame 97">
        <g
           id="Frame 96">
          <g
             id="Frame 95">
            <rect
               x="10"
               y="8"
               width="75.04"
               height="54"
               rx="4"
               fill="#272730"
               fill-opacity="0.2"
               id="rect5" />
            <path
               id="logo analog"
               fill-rule="evenodd"
               clip-rule="evenodd"
               d="M 23.436827,23.881445 H 36.781919 V 37.205376 H 23.436827 Z m 10.96002,6.431474 -8.57961,-4.596437 v 9.64936 z m 4.943571,0.492361 h 2.071061 c 0.358662,-0.01199 0.71722,0.02718 1.063658,0.116321 0.332763,0.107925 0.626779,0.303391 0.848171,0.563911 0.247396,0.289401 0.429317,0.624671 0.534161,0.984623 0.1324,0.468178 0.193938,0.951944 0.182749,1.436712 0.0096,0.436999 -0.04879,0.872899 -0.173322,1.293409 -0.110748,0.397426 -0.316083,0.764974 -0.599843,1.074161 -0.218284,0.224046 -0.492306,0.39183 -0.796577,0.487864 -0.324578,0.09474 -0.663557,0.137006 -1.002742,0.125313 h -2.127316 z m 1.133899,1.029392 V 35.8627 h 0.843508 c 0.229681,0.0089 0.459672,-0.01059 0.684068,-0.05816 0.173944,-0.04247 0.33266,-0.129111 0.459258,-0.250628 0.147009,-0.169583 0.24833,-0.370845 0.295156,-0.586396 0.08702,-0.365349 0.126392,-0.739691 0.117171,-1.114433 0.01098,-0.36435 -0.02838,-0.728499 -0.117171,-1.083055 -0.05708,-0.218649 -0.167935,-0.42121 -0.323334,-0.590793 -0.141,-0.143402 -0.323751,-0.243133 -0.524733,-0.286403 -0.306552,-0.04867 -0.617351,-0.06815 -0.927839,-0.05816 z m 4.423396,5.052922 V 30.80528 h 4.160979 v 1.029392 h -3.026976 v 1.35157 h 2.81615 v 1.020498 h -2.81615 v 1.65596 h 3.130057 v 1.024894 z m 6.555478,0 -2.005586,-6.082314 h 1.22776 l 1.41973,4.502402 1.373007,-4.502402 h 1.199478 l -2.005484,6.082314 z m 3.654894,0 V 30.80528 h 1.1339 v 6.082314 z m 5.697881,-2.233362 1.096499,0.375941 c -0.111058,0.565311 -0.404349,1.083255 -0.838743,1.48148 -0.418958,0.327775 -0.948871,0.498058 -1.490074,0.478871 -0.713284,0.01429 -1.392589,-0.2903 -1.836823,-0.823533 -0.510644,-0.650653 -0.764566,-1.452701 -0.716911,-2.264642 -0.05532,-0.84262 0.199948,-1.677045 0.721572,-2.358676 0.460086,-0.550921 1.16498,-0.862707 1.902402,-0.841422 0.631854,-0.02158 1.242368,0.220149 1.672824,0.662445 0.286556,0.320779 0.483188,0.705814 0.571664,1.11893 l -1.119913,0.290899 c -0.04931,-0.286102 -0.195804,-0.548821 -0.416989,-0.747485 -0.208028,-0.181975 -0.481738,-0.279808 -0.763737,-0.273012 -0.400207,-0.0081 -0.778863,0.17278 -1.01217,0.483367 -0.301993,0.470576 -0.438226,1.021097 -0.388912,1.571019 -0.05263,0.572206 0.08153,1.146011 0.38425,1.64247 0.222326,0.314383 0.596217,0.499756 0.993315,0.49236 0.292357,0.0037 0.572906,-0.109824 0.773164,-0.313283 0.253405,-0.274012 0.416471,-0.613479 0.468582,-0.975729 z m 1.968084,2.233362 V 30.80528 h 4.156315 v 1.029392 h -3.027079 v 1.35157 h 2.816151 v 1.020498 h -2.816151 v 1.65596 h 3.134823 v 1.024894 z m 4.835723,-1.978238 1.101161,-0.11632 c 0.03139,0.328974 0.172597,0.63966 0.403003,0.886191 0.222739,0.195066 0.518102,0.296695 0.819991,0.281906 0.299299,0.02188 0.595595,-0.06975 0.824654,-0.255125 0.177156,-0.147599 0.278063,-0.361751 0.276508,-0.586297 0.005,-0.13001 -0.03616,-0.257822 -0.117172,-0.36255 -0.105671,-0.124414 -0.247499,-0.216251 -0.407665,-0.264019 -0.131157,-0.05367 -0.43574,-0.138704 -0.904321,-0.268515 -0.472208,-0.09473 -0.911989,-0.300893 -1.279249,-0.599787 -0.567934,-0.562812 -0.678681,-1.416325 -0.271743,-2.094559 0.160994,-0.269314 0.40466,-0.484966 0.698159,-0.617674 0.347578,-0.147799 0.725405,-0.219649 1.105823,-0.210356 0.578088,-0.03997 1.149232,0.140304 1.588494,0.501355 0.366225,0.358753 0.568452,0.841621 0.56234,1.342676 l -1.134002,0.05367 c -0.01761,-0.253626 -0.128879,-0.493161 -0.313908,-0.675835 -0.204712,-0.149897 -0.459672,-0.223047 -0.717013,-0.205858 -0.276404,-0.01379 -0.549389,0.06366 -0.773062,0.219349 -0.118103,0.09343 -0.183889,0.234038 -0.178087,0.380438 -0.0013,0.139704 0.06009,0.273312 0.16866,0.366947 0.312975,0.20406 0.66739,0.342864 1.040245,0.40732 0.425898,0.09473 0.837085,0.242233 1.222995,0.438598 0.259931,0.149697 0.473451,0.36295 0.61849,0.617575 0.159025,0.300693 0.236311,0.634664 0.224915,0.971231 9.32e-4,0.341866 -0.09107,0.678034 -0.26708,0.975729 -0.170526,0.298295 -0.436466,0.536731 -0.759076,0.680232 -0.384044,0.158391 -0.800203,0.23324 -1.218332,0.219349 -0.597874,0.04007 -1.18746,-0.151996 -1.635321,-0.532633 -0.413053,-0.423712 -0.653922,-0.974533 -0.679407,-1.553035 z M 44.719729,29.963859 h -1.227761 l -0.487332,-1.383047 h -2.23506 l -0.459258,1.383047 H 39.11084 l 2.178806,-6.082414 h 1.190257 z m -2.075828,-2.403446 -0.773164,-2.260244 -0.754414,2.260244 z m 2.581809,2.403446 v -6.082414 h 1.101161 l 2.286653,4.063903 v -4.063903 h 1.049672 v 6.082414 h -1.134003 l -2.253812,-3.96547 v 3.96547 z m 10.57121,0 h -1.22776 l -0.491995,-1.383047 h -2.23506 l -0.459257,1.383047 h -1.194816 l 2.174143,-6.082414 h 1.194919 z m -2.080489,-2.403446 -0.768503,-2.260244 -0.754413,2.260244 z m 2.605222,2.403446 v -6.033148 h 1.12934 v 5.008154 h 2.806723 v 1.024994 z m 4.40941,-3.003233 c -0.01637,-0.531334 0.07107,-1.06107 0.257653,-1.561925 0.12318,-0.303491 0.298988,-0.584897 0.520174,-0.832527 0.196425,-0.229642 0.442577,-0.415914 0.721572,-0.546024 0.376896,-0.167186 0.788809,-0.249828 1.204243,-0.241634 0.758245,-0.02848 1.487898,0.278709 1.977407,0.832427 0.98544,1.398538 0.987305,3.227479 0.0047,4.627815 -0.508157,0.527637 -1.224445,0.827931 -1.975025,0.827931 -0.75058,0 -1.466869,-0.300294 -1.975025,-0.827931 -0.52494,-0.649752 -0.786218,-1.458795 -0.735662,-2.278132 z m 1.162078,-0.04027 c -0.03843,0.554319 0.116446,1.105139 0.440403,1.566522 0.259516,0.339566 0.675158,0.53803 1.11525,0.532533 0.437501,0.0057 0.850451,-0.193167 1.105823,-0.532533 0.321988,-0.468577 0.473555,-1.025394 0.431079,-1.58441 0.04268,-0.550721 -0.105465,-1.099643 -0.421651,-1.561925 -0.272675,-0.326975 -0.68697,-0.516645 -1.124575,-0.514845 -0.437501,0.0017 -0.850139,0.194666 -1.119913,0.523739 -0.318465,0.46488 -0.468271,1.0168 -0.426416,1.570919 z m 7.642446,0.810143 v -1.029392 h 2.432003 v 2.425731 c -0.291839,0.285603 -0.643043,0.509749 -1.03092,0.657947 -0.428799,0.184173 -0.89334,0.280207 -1.363579,0.282006 -0.539029,0.01279 -1.070082,-0.125713 -1.527578,-0.398326 -0.441957,-0.27671 -0.783938,-0.676834 -0.979327,-1.145811 -0.222637,-0.513348 -0.334214,-1.064468 -0.327997,-1.620186 -0.01108,-0.581399 0.113752,-1.157803 0.365499,-1.687239 0.225226,-0.475172 0.60036,-0.8712 1.073086,-1.13242 0.407664,-0.216051 0.869512,-0.321379 1.3354,-0.30429 0.583888,-0.03218 1.160628,0.136106 1.625997,0.474373 0.405386,0.340465 0.672466,0.806244 0.754413,1.315894 l -1.119912,0.228241 c -0.06558,-0.27631 -0.221497,-0.525539 -0.445169,-0.711611 -0.230716,-0.176578 -0.519863,-0.268615 -0.815329,-0.25962 -0.454181,-0.01579 -0.889714,0.17318 -1.176167,0.510248 -0.321988,0.443495 -0.475834,0.978826 -0.435741,1.517256 -0.04248,0.573505 0.11396,1.144412 0.445169,1.624582 0.269255,0.351158 0.701888,0.553519 1.157415,0.541527 0.245738,-0.0037 0.488163,-0.05546 0.712248,-0.152095 0.220771,-0.09314 0.426003,-0.216751 0.609063,-0.367048 v -0.769769 z"
               fill="#ffffff"
               style="stroke-width:1.01749" />
          </g>
          <g
             id="txt">
            <rect
               x="10"
               y="64"
               width="75.04"
               height="24"
               rx="4"
               fill="#272730"
               fill-opacity="0.2"
               id="rect9" />
          </g>
        </g>
        <path
           id="dark copy 2"
           opacity="0.2"
           d="M87.0391 12C87.0391 9.79086 88.8299 8 91.0391 8H95.0391V88H91.0391C88.8299 88 87.0391 86.2091 87.0391 84V12Z"
           fill="#272730" />
      </g>
    </g>
  </g>
  <defs
     id="defs21">
    <clipPath
       id="clip0_218_29904">
      <rect
         width="95.04"
         height="96"
         rx="8"
         fill="white"
         id="rect18" />
    </clipPath>
  </defs>
  <text
     xml:space="preserve"
     style="font-style:normal;font-weight:normal;font-size:40px;line-height:1.25;font-family:sans-serif;fill:#ffffff;fill-opacity:1;stroke:none"
     x="77.681358"
     y="82.361313"
     id="text20945"><tspan
       sodipodi:role="line"
       id="tspan20943"
       x="77.681358"
       y="82.361313" /></text>
  <text
     xml:space="preserve"
     style="font-style:normal;font-variant:normal;font-weight:bold;font-stretch:normal;font-size:11.3352px;line-height:1.25;font-family:'Open Sans';-inkscape-font-specification:'Open Sans, Bold';font-variant-ligatures:normal;font-variant-caps:normal;font-variant-numeric:normal;font-variant-east-asian:normal;fill:#ffffff;fill-opacity:1;stroke:none;stroke-width:0.85013"
     x="24.646069"
     y="80.686577"
     id="text9080"
     transform="scale(1.0145711,0.98563812)"><tspan
       sodipodi:role="line"
       id="tspan9078"
       x="24.646069"
       y="80.686577"
       style="stroke-width:0.85013">SWIOT1L</tspan></text>
</svg>
