<svg width="24" height="24" viewBox="0 0 24 24" fill="none" xmlns="http://www.w3.org/2000/svg">
<rect width="24" height="24"/>
<path fill-rule="evenodd" clip-rule="evenodd" d="M20.7343 18.9961C20.3776 19.6171 19.7161 20 19 20L5 20C4.28387 20 3.62239 19.6171 3.26572 18.9961C2.90904 18.3751 2.9116 17.6108 3.27244 16.9923L10.2724 4.99226C10.6309 4.37782 11.2887 4 12 4C12.7113 4 13.3691 4.37782 13.7276 4.99226L20.7276 16.9923C21.0884 17.6108 21.091 18.3751 20.7343 18.9961ZM19 18L12 6L5 18L19 18ZM11 9H13V14H11V9ZM12 15C11.4477 15 11 15.4477 11 16C11 16.5523 11.4477 17 12 17C12.5523 17 13 16.5523 13 16C13 15.4477 12.5523 15 12 15Z" fill="#fff" opacity="0.6"/>
</svg>
