<?xml version="1.0" encoding="UTF-8"?>
<svg width="100px" height="100px" viewBox="0 0 100 100" version="1.1" xmlns="http://www.w3.org/2000/svg" xmlns:xlink="http://www.w3.org/1999/xlink">
    <!-- Generator: sketchtool 49.1 (51147) - http://www.bohemiancoding.com/sketch -->
    <title>C7953CEC-1985-4C73-9530-59F852DD5708</title>
    <desc>Created with sketchtool.</desc>
    <defs>
        <path d="M6.35981491,4.57071776 C20.9065427,1.52357259 35.4532705,1.78146042e-15 49.9999983,0 C64.5467251,0 79.0934519,1.52357238 93.6401787,4.57071714 L93.6401792,4.57071469 C97.3458791,5.34695833 99.9999965,8.61464616 99.9999965,12.4007743 L99.9999983,87.5992234 C99.9999983,91.3853511 97.3458812,94.6530386 93.6401816,95.4292822 C79.0934538,98.4764274 64.5467261,100 49.9999983,100 C35.4532715,100 20.9065447,98.4764276 6.35981789,95.4292829 L6.35981737,95.4292853 C2.65411746,94.6530417 -6.03123781e-14,91.3853538 -6.75015597e-14,87.5992257 L-1.77123537e-06,12.4007766 C-1.77123537e-06,8.61464888 2.65411539,5.34696137 6.35981491,4.57071776 Z" id="path-1"></path>
        <path d="M3.12299584,3.23482916 C12.7196396,1.07827639 25.0119743,1.49760461e-15 40,0 C54.9880274,0 67.2803632,1.07827663 76.8770074,3.23482989 L76.8770073,3.23483041 C78.7027089,3.6451012 80,5.26627134 80,7.1375032 L79.9999883,72.8625089 C79.9999883,74.7337356 78.7027008,76.3549012 76.8770042,76.7651708 C67.2803604,78.9217236 54.9880257,80 40,80 C25.0119726,80 12.7196368,78.9217234 3.12299261,76.7651701 L3.12299272,76.7651696 C1.29729107,76.3548988 -6.4187912e-15,74.7337287 0,72.8624968 L1.16636604e-05,7.13749112 C1.16636604e-05,5.26626442 1.2972992,3.64509876 3.12299584,3.23482916 Z" id="path-3"></path>
    </defs>
    <g id="main" stroke="none" stroke-width="1" fill="none" fill-rule="evenodd">
        <g id="loadsave" transform="translate(-440.000000, -130.000000)">
            <g id="ic-adalm" transform="translate(440.000000, 130.000000)">
                <mask id="mask-2" fill="white">
                    <use xlink:href="#path-1"></use>
                </mask>
                <use id="Rectangle" fill="#4A64FF" transform="translate(50.000000, 50.000000) rotate(90.000000) translate(-50.000000, -50.000000) " xlink:href="#path-1"></use>
                <g id="Group-2" mask="url(#mask-2)">
                    <g transform="translate(10.000000, 10.000000)">
                        <mask id="mask-4" fill="white">
                            <use xlink:href="#path-3"></use>
                        </mask>
                        <use id="Rectangle-Copy" stroke="none" fill="#141416" fill-rule="evenodd" transform="translate(40.000000, 40.000000) rotate(90.000000) translate(-40.000000, -40.000000) " xlink:href="#path-3"></use>
                        <polygon id="Rectangle-7" stroke="none" fill="#4A64FF" fill-rule="evenodd" opacity="0.800000012" mask="url(#mask-4)" points="0 0 80 0 80 62 0 62"></polygon>
                        <rect id="Rectangle-7-Copy" stroke="none" fill="#272730" fill-rule="evenodd" opacity="0.200000003" mask="url(#mask-4)" x="0" y="0" width="80" height="40"></rect>
                    </g>
                </g>
                <path d="M-34.0679896,42.0901383 C-24.37592,44.3487705 -11.8605601,45.4780866 3.47809009,45.4780866 C18.8167333,45.4780866 31.3320888,44.3487716 41.0241566,42.0901414 L41.0241526,42.090124 C42.0999075,41.8394311 43.1752059,42.508276 43.4258988,43.5840309 C43.4605788,43.732847 43.4780901,43.8851471 43.4780901,44.0379506 L43.4780891,50.3405846 C43.4780891,52.2118163 42.1807981,53.8329862 40.3550967,54.2432569 C30.7584526,56.3998101 18.466117,57.4780866 3.47809009,57.4780866 C-11.5099373,57.4780866 -23.8022731,56.39981 -33.3989173,54.2432568 L-33.3989172,54.2432562 C-35.2246188,53.8329854 -36.5219099,52.2118153 -36.5219099,50.3405834 L-36.5219292,44.0379662 C-36.5219292,42.9333861 -35.6264901,42.0379469 -34.5219099,42.0379469 C-34.3691062,42.0379469 -34.2168059,42.0554583 -34.0679896,42.0901383 Z" id="Rectangle-Copy-2" fill="#141416" opacity="0.200000003" mask="url(#mask-2)" transform="translate(3.478088, 49.999998) rotate(90.000000) translate(-3.478088, -49.999998) "></path>
                <path d="M58.9320104,42.0901383 C68.62408,44.3487705 81.1394399,45.4780866 96.4780901,45.4780866 C111.816733,45.4780866 124.332089,44.3487716 134.024157,42.0901414 L134.024153,42.090124 C135.099907,41.8394311 136.175206,42.508276 136.425899,43.5840309 C136.460579,43.732847 136.47809,43.8851471 136.47809,44.0379506 L136.478089,50.3405846 C136.478089,52.2118163 135.180798,53.8329862 133.355097,54.2432569 C123.758453,56.3998101 111.466117,57.4780866 96.4780901,57.4780866 C81.4900627,57.4780866 69.1977269,56.39981 59.6010827,54.2432568 L59.6010828,54.2432562 C57.7753812,53.8329854 56.4780901,52.2118153 56.4780901,50.3405834 L56.4780708,44.0379662 C56.4780708,42.9333861 57.3735099,42.0379469 58.4780901,42.0379469 C58.6308938,42.0379469 58.7831941,42.0554583 58.9320104,42.0901383 Z" id="Rectangle-Copy-3" fill="#141416" opacity="0.200000003" mask="url(#mask-2)" transform="translate(96.478088, 49.999998) scale(-1, 1) rotate(90.000000) translate(-96.478088, -49.999998) "></path>
                <rect id="Rectangle-2" fill="#FFFFFF" mask="url(#mask-2)" x="21" y="76" width="58" height="10" rx="2"></rect>
                <g id="pins" mask="url(#mask-2)" fill="#272730">
                    <g transform="translate(23.000000, 78.000000)">
                        <rect id="Rectangle-3" x="0" y="0" width="2" height="2"></rect>
                        <rect id="Rectangle-3-Copy" x="0" y="4" width="2" height="2"></rect>
                        <rect id="Rectangle-3-Copy-3" x="4" y="0" width="2" height="2"></rect>
                        <rect id="Rectangle-3-Copy-2" x="4" y="4" width="2" height="2"></rect>
                        <rect id="Rectangle-3-Copy-7" x="8" y="0" width="2" height="2"></rect>
                        <rect id="Rectangle-3-Copy-6" x="8" y="4" width="2" height="2"></rect>
                        <rect id="Rectangle-3-Copy-5" x="12" y="0" width="2" height="2"></rect>
                        <rect id="Rectangle-3-Copy-4" x="12" y="4" width="2" height="2"></rect>
                        <rect id="Rectangle-3-Copy-11" x="16" y="0" width="2" height="2"></rect>
                        <rect id="Rectangle-3-Copy-10" x="16" y="4" width="2" height="2"></rect>
                        <rect id="Rectangle-3-Copy-9" x="20" y="0" width="2" height="2"></rect>
                        <rect id="Rectangle-3-Copy-8" x="20" y="4" width="2" height="2"></rect>
                        <rect id="Rectangle-3-Copy-15" x="24" y="0" width="2" height="2"></rect>
                        <rect id="Rectangle-3-Copy-14" x="24" y="4" width="2" height="2"></rect>
                        <rect id="Rectangle-3-Copy-13" x="28" y="0" width="2" height="2"></rect>
                        <rect id="Rectangle-3-Copy-12" x="28" y="4" width="2" height="2"></rect>
                        <rect id="Rectangle-3-Copy-19" x="32" y="0" width="2" height="2"></rect>
                        <rect id="Rectangle-3-Copy-18" x="32" y="4" width="2" height="2"></rect>
                        <rect id="Rectangle-3-Copy-17" x="36" y="0" width="2" height="2"></rect>
                        <rect id="Rectangle-3-Copy-16" x="36" y="4" width="2" height="2"></rect>
                        <rect id="Rectangle-3-Copy-23" x="40" y="0" width="2" height="2"></rect>
                        <rect id="Rectangle-3-Copy-22" x="40" y="4" width="2" height="2"></rect>
                        <rect id="Rectangle-3-Copy-21" x="44" y="0" width="2" height="2"></rect>
                        <rect id="Rectangle-3-Copy-20" x="44" y="4" width="2" height="2"></rect>
                        <rect id="Rectangle-3-Copy-27" x="48" y="0" width="2" height="2"></rect>
                        <rect id="Rectangle-3-Copy-26" x="48" y="4" width="2" height="2"></rect>
                        <rect id="Rectangle-3-Copy-25" x="52" y="0" width="2" height="2"></rect>
                        <rect id="Rectangle-3-Copy-24" x="52" y="4" width="2" height="2"></rect>
                    </g>
                </g>
                <text id="Adalm2000" mask="url(#mask-2)" font-family="OpenSans-Bold, Open Sans" font-size="8" font-weight="bold" line-spacing="22" letter-spacing="0.355555564" fill="#FFFFFF">
                    <tspan x="25.3355468" y="59">ADALM2000</tspan>
                </text>
                <path d="M26,23.1113556 L39.4181595,23.1113556 L39.4181595,37 L26,37 L26,23.1113556 L26,23.1113556 L26,23.1113556 Z M37.0200404,29.815414 L28.3934077,25.024135 L28.3934077,35.0825553 L37.0200404,29.815414 L37.0200404,29.815414 L37.0200404,29.815414 Z M41.9906016,30.3285987 L44.0730548,30.3285987 C44.4336613,30.3161404 44.7941272,30.3570231 45.1425499,30.449897 C45.4770502,30.5623869 45.7726565,30.7661538 45.9953192,31.0377267 C46.244072,31.3394117 46.4269554,31.6888899 46.5324225,32.0640961 C46.6655119,32.5520477 46.7273879,33.0563496 46.7161684,33.5616624 C46.7258653,34.0171591 46.6671153,34.4715523 46.5418454,34.9099386 C46.4304776,35.324129 46.2241042,35.7072915 45.938782,36.0296144 C45.7192352,36.2631192 45.4437578,36.4380199 45.1378385,36.5381338 C44.8114167,36.6368285 44.4706686,36.680976 44.129592,36.6687626 L41.9906016,36.6687626 L41.9906016,30.3285987 L41.9906016,30.3285987 L41.9906016,30.3285987 Z M43.1307683,31.4016213 L43.1307683,35.6004053 L43.9788261,35.6004053 C44.2097996,35.6097239 44.4410181,35.5893375 44.6666953,35.5397562 C44.841572,35.4954772 45.0011068,35.4052067 45.1284156,35.2784986 C45.2762281,35.1018098 45.3781317,34.8919891 45.4252359,34.6673422 C45.5127345,34.2864138 45.552297,33.8962283 45.5430217,33.5056786 C45.5540739,33.1258516 45.5144702,32.7462406 45.4252359,32.3766723 C45.367787,32.1487518 45.2563501,31.9376549 45.100147,31.7608506 C44.9583337,31.6113501 44.7745378,31.5073519 44.5724666,31.4622704 C44.2642973,31.4116019 43.9518171,31.3912864 43.639603,31.4016213 L43.1307683,31.4016213 L43.1307683,31.4016213 Z M47.5783605,36.6687626 L47.5783605,30.3285987 L51.7621125,30.3285987 L51.7621125,31.4016213 L48.7185271,31.4016213 L48.7185271,32.8105466 L51.550098,32.8105466 L51.550098,33.8742386 L48.7185271,33.8742386 L48.7185271,35.6004053 L51.865764,35.6004053 L51.865764,36.6687626 L47.5783605,36.6687626 L47.5783605,36.6687626 Z M54.1696545,36.6687626 L52.1531614,30.3285987 L53.3875567,30.3285987 L54.8151207,35.0219062 L56.1955704,30.3285987 L57.4016971,30.3285987 L55.385204,36.6687626 L54.1696545,36.6687626 L54.1696545,36.6687626 Z M57.8445717,36.6687626 L57.8445717,30.3285987 L58.9847384,30.3285987 L58.9847384,36.6687626 L57.8445717,36.6687626 L57.8445717,36.6687626 Z M63.5736736,34.3407701 L64.6761488,34.7326566 L64.6761488,34.7326566 C64.5644868,35.3218688 64.2696225,35.8617835 63.8328023,36.2768761 C63.4115347,36.6185458 62.8787322,36.7960673 62.3345668,36.7760649 C61.6173999,36.790943 60.9343303,36.4734568 60.4876853,35.9176468 C59.9742303,35.2393374 59.7189606,34.4033755 59.7668362,33.5569971 C59.711222,32.6786923 59.9679267,31.8088276 60.4923968,31.0983758 C60.9549737,30.5240814 61.6637251,30.1991035 62.4052383,30.2212965 C63.0405315,30.1988006 63.6543437,30.4507754 64.0872197,30.9117632 C64.3752849,31.2461884 64.5730415,31.6474608 64.6620145,32.0780921 L64.6620145,32.0780921 L63.5359821,32.3813376 L63.5359821,32.3813376 C63.4864042,32.0830855 63.3390469,31.8092901 63.1166646,31.6022299 C62.9075387,31.4124947 62.6322429,31.3104783 62.3487011,31.3176456 C61.946341,31.3092187 61.5656396,31.4977062 61.3310317,31.8214997 C61.0274406,32.3119901 60.8904027,32.8858392 60.9399828,33.4590255 C60.8870564,34.0555642 61.0220193,34.6536928 61.3263203,35.1711963 C61.549878,35.4988617 61.9258748,35.6920447 62.325144,35.684381 C62.6190726,35.6883724 62.9011655,35.5698681 63.1025303,35.3578089 C63.3573379,35.0721627 63.5212452,34.7183422 63.5736736,34.3407701 L63.5736736,34.3407701 L63.5736736,34.3407701 Z M65.5524752,36.6687626 L65.5524752,30.3285987 L69.7315157,30.3285987 L69.7315157,31.4016213 L66.6879304,31.4016213 L66.6879304,32.8105466 L69.5195013,32.8105466 L69.5195013,33.8742386 L66.6879304,33.8742386 L66.6879304,35.6004053 L69.8398787,35.6004053 L69.8398787,36.6687626 L65.5524752,36.6687626 L65.5524752,36.6687626 Z M70.4146734,34.6066931 L71.5218601,34.4853949 L71.5218601,34.4853949 C71.5533941,34.8283627 71.6954437,35.1522061 71.9270432,35.4091274 C72.1510041,35.6125347 72.4480414,35.7184214 72.7515439,35.7030423 C73.0525081,35.7258225 73.3504199,35.6302841 73.580756,35.4371193 C73.7588615,35.2831967 73.8603596,35.0600423 73.8587305,34.8259629 C73.8638786,34.6904182 73.8223449,34.5571662 73.7409447,34.4480724 C73.6346666,34.3183552 73.4920732,34.2226005 73.3310501,34.1728188 C73.19913,34.116835 72.8928869,34.028194 72.4217437,33.8928998 C71.9469843,33.7942153 71.5047726,33.5792836 71.1355226,33.2677476 C70.5644418,32.6810135 70.4531017,31.7914073 70.8622595,31.0843799 C71.0241264,30.8036293 71.2691792,30.5788892 71.564263,30.4405663 C71.9137964,30.2864457 72.2936671,30.211534 72.676161,30.2212965 C73.2573708,30.1795893 73.8316143,30.3674528 74.2733366,30.7438118 C74.6415769,31.1177697 74.8449139,31.6211364 74.8387085,32.1434065 L74.8387085,32.1434065 L73.6985418,32.1993903 L73.6985418,32.1993903 C73.6808213,31.9349793 73.5689689,31.6853615 73.3828759,31.4949276 C73.1770939,31.3386791 72.9207068,31.2623499 72.6620267,31.2803231 C72.3840838,31.2659329 72.1096003,31.3466483 71.8846404,31.5089236 C71.7659221,31.6063384 71.6997471,31.7529125 71.7056059,31.9054754 C71.7043088,32.0511412 71.7660463,32.190389 71.8752175,32.2880313 C72.1898501,32.5007748 72.5462482,32.6454359 72.9211555,32.712575 C73.3493807,32.8113885 73.7627618,32.9650851 74.1508394,33.1697759 C74.4122257,33.3258563 74.6268923,33.5480836 74.7727484,33.8135895 C74.9325774,34.1269631 75.0103403,34.4750751 74.9988972,34.8259629 C74.9998745,35.1822891 74.9073338,35.5327524 74.7303455,35.8430017 C74.5588785,36.1539808 74.2914206,36.4024726 73.9670935,36.5521297 C73.5808856,36.7171571 73.1624983,36.7952352 72.7421211,36.7807302 C72.1408888,36.8224714 71.5480692,36.6223138 71.0978311,36.2255576 C70.6825351,35.7838105 70.4402589,35.2096936 70.4146734,34.6066931 L70.4146734,34.6066931 L70.4146734,34.6066931 Z M47.3993261,29.4515194 L46.1649308,29.4515194 L45.6749418,28.0099369 L43.4275885,28.0099369 L42.9658682,29.4515194 L41.7597415,29.4515194 L43.9505575,23.1113556 L45.1472614,23.1113556 L47.3993261,29.4515194 L47.3993261,29.4515194 L47.3993261,29.4515194 Z M45.3121615,26.946245 L44.5347751,24.5902606 L43.7762345,26.946245 L45.3121615,26.946245 L45.3121615,26.946245 Z M47.9081608,29.4515194 L47.9081608,23.1113556 L49.0153474,23.1113556 L51.3145264,27.3474621 L51.3145264,23.1113556 L52.3698873,23.1113556 L52.3698873,29.4515194 L51.2297206,29.4515194 L48.9635216,25.3180498 L48.9635216,29.4515194 L47.9081608,29.4515194 L47.9081608,29.4515194 Z M58.5371523,29.4515194 L57.302757,29.4515194 L56.8080566,28.0099369 L54.5607033,28.0099369 L54.098983,29.4515194 L52.8975677,29.4515194 L55.0836723,23.1113556 L56.2850876,23.1113556 L58.5371523,29.4515194 L58.5371523,29.4515194 L58.5371523,29.4515194 Z M56.4452763,26.946245 L55.6726014,24.5902606 L54.9140608,26.946245 L56.4452763,26.946245 L56.4452763,26.946245 Z M59.0648327,29.4515194 L59.0648327,23.1626741 L60.200288,23.1626741 L60.200288,28.3831622 L63.022436,28.3831622 L63.022436,29.4515194 L59.0648327,29.4515194 L59.0648327,29.4515194 Z M63.4982906,26.3210927 C63.4818897,25.767141 63.5697626,25.2150059 63.7574194,24.6928976 C63.881244,24.3765955 64.0580456,24.0832333 64.2803884,23.8251489 C64.4779105,23.585784 64.7254361,23.3916117 65.005949,23.2559804 C65.3848918,23.0817082 65.7990578,22.9955368 66.2167872,23.0040533 C66.9791778,22.9743694 67.7127794,23.2945454 68.2050116,23.871802 C69.1958204,25.3296069 69.1976824,27.2360384 68.2097231,28.6957383 C67.6987858,29.2457608 66.9785676,29.558751 66.2238543,29.558751 C65.4691411,29.558751 64.7489228,29.2457608 64.2379855,28.6957383 C63.7101922,28.0184702 63.4474797,27.1750832 63.4982906,26.3210927 L63.4982906,26.3210927 L63.4982906,26.3210927 Z M64.6667259,26.2791048 C64.6280704,26.856898 64.7838075,27.4310945 65.1096005,27.9119653 C65.3705169,28.2659237 65.7884058,28.4728229 66.2309215,28.4671378 C66.6708791,28.4730107 67.0860018,28.2657393 67.3428195,27.9119653 C67.6665951,27.4235541 67.8189249,26.8431529 67.7762713,26.2604436 C67.819172,25.6863432 67.6701718,25.1142089 67.3522424,24.6322485 C67.0781066,24.2915082 66.6615237,24.0937891 66.2215718,24.0956081 C65.7816199,24.0974271 65.366719,24.298584 65.0954662,24.6415791 C64.7752626,25.1261796 64.6246323,25.7014948 64.6667259,26.2791048 L64.6667259,26.2791048 L64.6667259,26.2791048 Z M72.3510722,27.123527 L72.3510722,26.0505044 L74.7963056,26.0505044 L74.7963056,28.5791054 L74.7963056,28.5791054 C74.5028686,28.8767673 74.1498053,29.1103686 73.7597905,29.2649068 C73.3286029,29.4568472 72.8615134,29.5569799 72.3887636,29.5588217 C71.8467942,29.5721613 71.3127759,29.4277981 70.8528367,29.1436086 C70.4084552,28.855166 70.064626,28.4381387 69.8681473,27.9492878 C69.6442524,27.4141439 69.5320664,26.8396609 69.538347,26.2604436 C69.5271588,25.6543961 69.6527078,25.0535157 69.9058387,24.5016196 C70.1322583,24.0063186 70.509526,23.5935917 70.9847568,23.3212948 C71.394654,23.0960255 71.8590612,22.9863042 72.327515,23.0040533 C72.9145952,22.9705191 73.4944416,23.1459142 73.9623821,23.4985768 C74.3699799,23.8534389 74.6385034,24.3389865 74.7209227,24.8701795 L74.7209227,24.8701795 L73.5948903,25.1081106 L73.5948903,25.1081106 C73.5289613,24.8200853 73.372207,24.5602962 73.1473042,24.3663255 C72.9153396,24.1822699 72.6246118,24.0863092 72.327515,24.0957372 C71.8708501,24.0792823 71.4329113,24.2762399 71.1449455,24.6275831 C70.8211,25.0898943 70.6665056,25.6478998 70.7067823,26.2091251 C70.6641067,26.806983 70.8213994,27.4021237 71.1543683,27.9026347 C71.4251296,28.2686089 71.8601061,28.4796088 72.3180921,28.4671378 C72.565238,28.4632353 72.8089581,28.4092526 73.0342299,28.3085171 C73.2562588,28.2114784 73.4626371,28.0825755 73.6467161,27.9259612 L73.6467161,27.9259612 L73.6467161,27.123527 L72.3510722,27.123527 L72.3510722,27.123527 Z" id="logo-analog" fill="#FFFFFF" mask="url(#mask-2)"></path>
            </g>
        </g>
    </g>
</svg>