<?xml version="1.0" encoding="UTF-8"?>
<svg width="60" height="40" viewBox="0 0 60 40" xmlns="http://www.w3.org/2000/svg">
 <path fill="#fff" opacity=".6" transform="translate(-1600 -60)" d="m1620 78v4h2.26c.1824.720962.4687 1.411538.85 2.05l-1.6 1.6 2.83 2.83 1.6-1.6c.642.381395 1.3359.667706 2.06.85v2.26h4v-2.26c.7241-.182294 1.418-.468605 2.06-.85l1.6 1.6 2.83-2.83-1.6-1.6c.3772-.640525.6633-1.330495.85-2.05h2.26v-4h-2.26c-.1867-.722675-.4727-1.415952-.85-2.06l1.6-1.6-2.83-2.83-1.6 1.6c-.644-.377247-1.3373-.663308-2.06-.85v-2.26h-4v2.26c-.7227.186692-1.4159.472753-2.06.85l-1.6-1.6-2.83 2.83 1.6 1.6c-.3814.641982-.6677 1.335865-.85 2.06zm10-4c3.3137 0 6 2.686291 6 6s-2.6863 6-6 6-6-2.686291-6-6 2.6863-6 6-6zm0 3c1.6569 0 3 1.343146 3 3s-1.3431 3-3 3c-1.6568 0-3-1.343146-3-3s1.3432-3 3-3zm0 4c .5523 0 1-.447715 1-1s-.4477-1-1-1-1 .447715-1 1 .4477 1 1 1z" fill-rule="evenodd"/>
</svg>
