<svg height="40" viewBox="0 0 60 40" width="60" xmlns="http://www.w3.org/2000/svg"><g fill="none" fill-rule="evenodd" transform=""><rect fill="#141416" height="40" opacity=".6" rx="4" transform="matrix(-1 0 0 1 60 0)" width="60"/><path d="m20 18v4h2.26c.1823467.7209624.4686828 1.4115376.85 2.05l-1.6 1.6 2.83 2.83 1.6-1.6c.6419817.3813954 1.3358647.6677063 2.06.85v2.26h4v-2.26c.7241353-.1822937 1.4180183-.4686046 2.06-.85l1.6 1.6 2.83-2.83-1.6-1.6c.3771974-.640525.6632827-1.3304954.85-2.05h2.26v-4h-2.26c-.1866924-.7226751-.4727531-1.4159518-.85-2.06l1.6-1.6-2.83-2.83-1.6 1.6c-.6440482-.3772469-1.3373249-.6633076-2.06-.85v-2.26h-4v2.26c-.7226751.1866924-1.4159518.4727531-2.06.85l-1.6-1.6-2.83 2.83 1.6 1.6c-.3813954.6419817-.6677063 1.3358647-.85 2.06zm10-4c3.3137085 0 6 2.6862915 6 6s-2.6862915 6-6 6-6-2.6862915-6-6 2.6862915-6 6-6zm0 3c1.6568542 0 3 1.3431458 3 3s-1.3431458 3-3 3-3-1.3431458-3-3 1.3431458-3 3-3zm0 4c .5522847 0 1-.4477153 1-1s-.4477153-1-1-1-1 .4477153-1 1 .4477153 1 1 1z" fill="#fff"/></g></svg>