<?xml version="1.0" encoding="UTF-8"?>
<svg width="20px" height="20px" viewBox="0 0 20 20" version="1.1" xmlns="http://www.w3.org/2000/svg" xmlns:xlink="http://www.w3.org/1999/xlink">
    <title>ico info</title>
    <g id="ico-info" stroke="none" stroke-width="1" fill="none" fill-rule="evenodd">
        <g fill="#FFFFFF">
            <path d="M10,20 C15.5228475,20 20,15.5228475 20,10 C20,4.4771525 15.5228475,0 10,0 C4.4771525,0 0,4.4771525 0,10 C0,15.5228475 4.4771525,20 10,20 L10,20 L10,20 Z M10,18 C5.581722,18 2,14.418278 2,10 C2,5.581722 5.581722,2 10,2 C14.418278,2 18,5.581722 18,10 C18,14.418278 14.418278,18 10,18 L10,18 L10,18 Z" id="Oval-183" fill-rule="nonzero"></path>
            <path d="M9,6.99999999 L9,4.99999999 L11,4.99999999 L11,6.99999999 L9,6.99999999 L9,6.99999999 Z M9,15 L9,8 L11,8 L11,15 L9,15 L9,15 Z" id="i"></path>
        </g>
    </g>
</svg>