<?xml version="1.0" encoding="UTF-8"?>
<svg width="20px" height="16px" viewBox="0 0 20 16" version="1.1" xmlns="http://www.w3.org/2000/svg" xmlns:xlink="http://www.w3.org/1999/xlink">
    <title>io</title>
    <g id="io" stroke="none" stroke-width="1" fill="none" fill-rule="evenodd" fill-opacity="0.400000006">
        <path d="M0,16 L2,16 L2,1.13686838e-13 L0,1.13686838e-13 L0,16 L0,16 Z M13,1.13686838e-13 C9.13606244,0.0049583633 6.00495836,3.13606244 6,7 L6,9 C6.00495836,12.8639376 9.13606244,15.9950416 13,16 L13,16 C16.8639376,15.9950416 19.9950416,12.8639376 20,9 L20,7 C19.9950416,3.13606244 16.8639376,0.0049583633 13,2.5243549e-29 L13,1.13686838e-13 Z M18,9 C18,11.7614237 15.7614237,14 13,14 C10.2385763,14 8,11.7614237 8,9 L8,7 C8,4.23857625 10.2385763,2 13,2 C15.7614237,2 18,4.23857625 18,7 L18,9 L18,9 Z" fill="#FFFFFF"></path>
    </g>
</svg>