<?xml version="1.0" encoding="UTF-8"?>
<svg width="20px" height="16px" viewBox="0 0 20 16" version="1.1" xmlns="http://www.w3.org/2000/svg" xmlns:xlink="http://www.w3.org/1999/xlink">
    <title>oscilo</title>
    <g id="oscilo" stroke="none" stroke-width="1" fill="none" fill-rule="evenodd" fill-opacity="0.400000006">
        <path d="M19,0 C16.7920031,0.00275483404 15.0027548,1.7920031 15,4 L15,12 C15,13.1045695 14.1045695,14 13,14 C11.8954305,14 11,13.1045695 11,12 L11,4 C11,1.790861 9.209139,0 7,0 C4.790861,0 3,1.790861 3,4 L3,12 C3,13.1045695 2.1045695,14 1,14 L0,14 L0,16 L1,16 C3.209139,16 5,14.209139 5,12 L5,4 C5,2.8954305 5.8954305,2 7,2 C8.1045695,2 9,2.8954305 9,4 L9,12 C9,14.209139 10.790861,16 13,16 C15.209139,16 17,14.209139 17,12 L17,4 C17.0032948,2.89679813 17.8967981,2.0032948 19,2 L20,2 L20,0 L19,0 L19,0 Z" fill="#FFFFFF"></path>
    </g>
</svg>