<?xml version="1.0" encoding="UTF-8"?>
<svg width="20px" height="16px" version="1.1" viewBox="0 0 20 16" xmlns="http://www.w3.org/2000/svg">
 <g fill="#fff" fill-opacity=".6" fill-rule="evenodd">
  <path d="m19 0c-2.208 0.0027548-3.9972 1.792-4 4v8c0 1.1046-0.89543 2-2 2s-2-0.89543-2-2v-8c0-2.2091-1.7909-4-4-4s-4 1.7909-4 4v8c0 1.1046-0.89543 2-2 2h-1v2h1c2.2091 0 4-1.7909 4-4v-8c0-1.1046 0.89543-2 2-2s2 0.89543 2 2v8c0 2.2091 1.7909 4 4 4s4-1.7909 4-4v-8c0.0032948-1.1032 0.8968-1.9967 2-2h1v-2h-1z"/>
 </g>
</svg>
