<?xml version="1.0" encoding="UTF-8"?>
<svg width="20px" height="16px" viewBox="0 0 20 16" version="1.1" xmlns="http://www.w3.org/2000/svg" xmlns:xlink="http://www.w3.org/1999/xlink">
    <title>signal</title>
    <g id="signal" stroke="none" stroke-width="1" fill="none" fill-rule="evenodd" fill-opacity="0.400000006">
        <path d="M6,16 C5.91496854,16.0013915 5.83035235,15.9878529 5.75,15.96 C5.31022159,15.8486422 5.00163786,15.4536551 5,15 L5,4.77 L2.87,8.49 C2.69448591,8.80572139 2.36122572,9.00108081 2,9 L0,9 L0,7 L1.42,7 L5.13,0.51 C5.35563207,0.114223542 5.82024755,-0.0790236067 6.26,0.04 C6.69766458,0.152384157 7.00273015,0.548144906 7,1 L7,11.23 L13.13,0.51 C13.3556321,0.114223542 13.8202476,-0.0790236067 14.26,0.04 C14.6976646,0.152384157 15.0027302,0.548144906 15,1 L15,11.23 L17.13,7.5 C17.309341,7.18936581 17.6413152,6.99857599 18,7 L20,7 L20,9 L18.58,9 L14.87,15.49 C14.6463901,15.884573 14.1852391,16.0792568 13.7465207,15.9642985 C13.3078023,15.8493402 13.0013803,15.4535277 13,15 L13,4.77 L6.87,15.49 C6.69322588,15.8044869 6.36076408,15.9993783 6,16 L6,16 Z" fill="#FFFFFF"></path>
    </g>
</svg>