<?xml version="1.0" encoding="UTF-8"?>
<svg width="20px" height="16px" version="1.1" viewBox="0 0 20 16" xmlns="http://www.w3.org/2000/svg">
 <g fill="#fff" opacity=".6" fill-rule="evenodd">
  <path d="m6 16c-0.085031 0.0013915-0.16965-0.012147-0.25-0.04-0.43978-0.11136-0.74836-0.50634-0.75-0.96v-10.23l-2.13 3.72c-0.17551 0.31572-0.50877 0.51108-0.87 0.51h-2v-2h1.42l3.71-6.49c0.22563-0.39578 0.69025-0.58902 1.13-0.47 0.43766 0.11238 0.74273 0.50814 0.74 0.96v10.23l6.13-10.72c0.22563-0.39578 0.69025-0.58902 1.13-0.47 0.43766 0.11238 0.74273 0.50814 0.74 0.96v10.23l2.13-3.73c0.17934-0.31063 0.51132-0.50142 0.87-0.5h2v2h-1.42l-3.71 6.49c-0.22361 0.39457-0.68476 0.58926-1.1235 0.4743s-0.74514-0.51077-0.74652-0.9643v-10.23l-6.13 10.72c-0.17677 0.31449-0.50924 0.50938-0.87 0.51z"/>
 </g>
</svg>
