<?xml version="1.0" encoding="UTF-8"?>
<svg width="20px" height="16px" viewBox="0 0 20 16" version="1.1" xmlns="http://www.w3.org/2000/svg" xmlns:xlink="http://www.w3.org/1999/xlink">
    <title>spectrum</title>
    <g id="spectrum" stroke="none" stroke-width="1" fill="none" fill-rule="evenodd" opacity="0.4">
        <path d="M5,16 L3,16 L3,8 L5,8 L5,16 L5,16 Z M11,16 L9,16 L9,0 L11,0 L11,16 L11,16 Z M14,16 L12,16 L12,2 L14,2 L14,16 L14,16 Z M17,16 L15,16 L15,6 L17,6 L17,16 L17,16 Z M2,16 L0,16 L0,12 L2,12 L2,16 L2,16 Z M20,16 L18,16 L18,10 L20,10 L20,16 L20,16 Z M8,16 L6,16 L6,4 L8,4 L8,16 L8,16 Z" fill="#FFFFFF"></path>
    </g>
</svg>