<?xml version="1.0" encoding="UTF-8"?>
<svg width="20px" height="20px" version="1.1" viewBox="0 0 20 20" xmlns="http://www.w3.org/2000/svg">
 <g fill="#fff" opacity=".6" fill-rule="evenodd">
  <g transform="translate(-168 -844)">
   <path d="m168 852v4h2.26c0.18235 0.72096 0.46868 1.4115 0.85 2.05l-1.6 1.6 2.83 2.83 1.6-1.6c0.64198 0.3814 1.3359 0.66771 2.06 0.85v2.26h4v-2.26c0.72414-0.18229 1.418-0.4686 2.06-0.85l1.6 1.6 2.83-2.83-1.6-1.6c0.3772-0.64052 0.66328-1.3305 0.85-2.05h2.26v-4h-2.26c-0.18669-0.72268-0.47275-1.416-0.85-2.06l1.6-1.6-2.83-2.83-1.6 1.6c-0.64405-0.37725-1.3373-0.66331-2.06-0.85v-2.26h-4v2.26c-0.72268 0.18669-1.416 0.47275-2.06 0.85l-1.6-1.6-2.83 2.83 1.6 1.6c-0.3814 0.64198-0.66771 1.3359-0.85 2.06h-2.26zm10-4c3.3137 0 6 2.6863 6 6s-2.6863 6-6 6-6-2.6863-6-6 2.6863-6 6-6zm0 3c1.6569 0 3 1.3431 3 3s-1.3431 3-3 3-3-1.3431-3-3 1.3431-3 3-3zm0 4c0.55228 0 1-0.44772 1-1s-0.44772-1-1-1-1 0.44772-1 1 0.44772 1 1 1z"/>
  </g>
 </g>
</svg>
