<?xml version="1.0" encoding="UTF-8"?>
<svg width="20px" height="21px" version="1.1" viewBox="0 0 20 21" xmlns="http://www.w3.org/2000/svg">
 <g fill="#fff" fill-opacity=".6" fill-rule="evenodd">
  <path d="m18.41 15.73c-1.63 2.15-4.28 3.16-7.3 3.16-4.776 0.11933-8.75-3.6445-8.89-8.42 0.12204-4.1796 3.5999-7.4742 7.78-7.37 3.5842-0.089064 6.5659 2.7362 6.67 6.32-0.090402 2.9845-2.5751 5.3351-5.56 5.26-2.387 0.059356-4.3724-1.8232-4.44-4.21 0.049605-1.791 1.5389-3.2042 3.33-3.16 1.1939-0.025778 2.1851 0.91631 2.22 2.11-0.017972 0.59584-0.51408 1.0651-1.11 1.05v2.11c1.7911 0.044225 3.2804-1.369 3.33-3.16-0.067579-2.3868-2.053-4.2694-4.44-4.21-2.9849-0.075107-5.4696 2.2755-5.56 5.26 0.10407 3.5838 3.0858 6.4091 6.67 6.32 4.1801 0.1042 7.658-3.1904 7.78-7.37-0.13676-4.7769-4.1127-8.5427-8.89-8.42-5.3717-0.13391-9.8415 4.0989-10 9.47 0 5.8 4.98 10.53 11.11 10.53 3.63 0 6.84-1.16 8.89-3.76l-1.59-1.51z"/>
 </g>
</svg>
