<?xml version="1.0" encoding="UTF-8"?>
<svg width="16px" height="20px" version="1.1" viewBox="0 0 16 20" xmlns="http://www.w3.org/2000/svg">
 <g fill="#fff" fill-opacity=".6" fill-rule="evenodd">
  <path d="m16 10c-0.0036533-4.0289-3.0027-7.4264-7-7.93v-2.07h-2v2.07c-3.9984 0.50097-6.9984 3.9003-6.9984 7.93s3 7.429 6.9984 7.93v2.07h2v-2.07c3.9973-0.50361 6.9963-3.9011 7-7.93zm-8 6c-3.3137 0-6-2.6863-6-6s2.6863-6 6-6 6 2.6863 6 6-2.6863 6-6 6zm1-10h-2v1h-1v2h1v1h2v-1h1v-2h-1v-1zm-3 8h4v-2h-4v2z"/>
 </g>
</svg>
