<?xml version="1.0" encoding="UTF-8"?>
<svg width="32" height="32" version="1.1" viewBox="0 0 32 32" xmlns="http://www.w3.org/2000/svg">
 <g fill="#fff" opacity=".6" transform="translate(6 4)">
  <g transform="translate(0 1)">
   <path d="m18.41 15.73c-1.63 2.15-4.28 3.16-7.3 3.16-4.78 0.12-8.75-3.64-8.89-8.42 0.12-4.18 3.6-7.47 7.78-7.37 3.58-0.09 6.57 2.74 6.67 6.32-0.09 2.98-2.58 5.34-5.56 5.26-2.39 0.06-4.37-1.82-4.44-4.21 0.05-1.79 1.54-3.2 3.33-3.16 1.19-0.03 2.19 0.92 2.22 2.11-0.02 0.6-0.51 1.07-1.11 1.05v2.11c1.79 0.04 3.28-1.37 3.33-3.16-0.07-2.39-2.05-4.27-4.44-4.21-2.99-0.08-5.47 2.28-5.56 5.26 0.1 3.58 3.09 6.41 6.67 6.32 4.18 0.1 7.66-3.19 7.78-7.37-0.14-4.78-4.11-8.54-8.89-8.42-5.37-0.13-9.84 4.1-10 9.47 0 5.8 4.98 10.53 11.11 10.53 3.63 0 6.84-1.16 8.89-3.76l-1.59-1.51z" fill-rule="evenodd"/>
  </g>
 </g>
</svg>
