<?xml version="1.0" encoding="UTF-8"?>
<svg width="80px" height="23px" version="1.1" viewBox="0 0 80 23" xmlns="http://www.w3.org/2000/svg">
 <g fill="#fff" opacity=".2" fill-rule="evenodd">
  <g transform="translate(-40 -76)">
   <path d="m40 76.184h21.907v21.825h-21.907v-21.825zm17.992 10.535-14.084-7.5292v15.806l14.084-8.2769zm8.1152 0.80643h3.3999c0.58875-0.019577 1.1773 0.044667 1.7461 0.19061 0.54612 0.17677 1.0287 0.49698 1.3923 0.92373 0.40613 0.47408 0.70471 1.0233 0.8769 1.6129 0.21729 0.76678 0.31831 1.5593 0.29999 2.3533 0.015832 0.71578-0.080087 1.4298-0.28461 2.1187-0.18182 0.65087-0.51876 1.253-0.98459 1.7595-0.35844 0.36694-0.8082 0.64178-1.3077 0.7991-0.53293 0.15509-1.0893 0.22447-1.6461 0.20527h-3.4922v-9.9631zm1.8615 1.6862v6.5981h1.3846c0.3771 0.014643 0.7546-0.017392 1.1231-0.095306 0.28551-0.069581 0.54598-0.21143 0.75383-0.41055 0.24133-0.27765 0.4077-0.60737 0.4846-0.96039 0.14286-0.5986 0.20745-1.2118 0.1923-1.8255 0.018044-0.59687-0.046615-1.1934-0.1923-1.7742-0.093794-0.35816-0.27573-0.68988-0.53076-0.96772-0.23153-0.23493-0.53161-0.39836-0.86152-0.4692-0.50313-0.079622-1.0133-0.11155-1.523-0.095306h-0.83075zm7.2614 8.2769v-9.9631h6.8306v1.6862h-4.9691v2.214h4.623v1.6715h-4.623v2.7125h5.1383v1.6788h-6.9998zm10.761 0-3.2922-9.9631h2.0153l2.3307 7.3752 2.2538-7.3752h1.9692l-3.2922 9.9631h-1.9846zm5.9999 0v-9.9631h1.8615v9.9631h-1.8615zm9.3536-3.6583 1.8 0.61582c-0.18231 0.9259-0.66372 1.7743-1.3769 2.4266-0.68778 0.53691-1.5577 0.81587-2.4461 0.78444-1.1709 0.02338-2.2861-0.47553-3.0153-1.3489-0.83829-1.0659-1.2551-2.3796-1.1769-3.7096-0.090799-1.3802 0.32831-2.7471 1.1846-3.8635 0.75523-0.90246 1.9124-1.4131 3.123-1.3783 1.0372-0.035351 2.0394 0.36061 2.7461 1.085 0.47031 0.52553 0.79318 1.1561 0.93844 1.8328l-1.8384 0.47653c-0.080943-0.46868-0.32153-0.89893-0.6846-1.2243-0.34143-0.29816-0.79089-0.45847-1.2538-0.4472-0.65691-0.013242-1.2785 0.28295-1.6615 0.79177-0.49566 0.77077-0.71939 1.6725-0.63845 2.5733-0.08641 0.93742 0.13394 1.8773 0.63076 2.6906 0.36499 0.5149 0.97886 0.81848 1.6307 0.80643 0.47988 0.0062722 0.94044-0.17995 1.2692-0.51318 0.41601-0.44887 0.68362-1.0049 0.76921-1.5982zm3.2307 3.6583v-9.9631h6.8229v1.6862h-4.9691v2.214h4.623v1.6715h-4.623v2.7125h5.146v1.6788h-6.9998zm7.9383-3.2404 1.8077-0.19061c0.051484 0.53895 0.2834 1.0478 0.66152 1.4516 0.36565 0.31964 0.85061 0.48603 1.3461 0.46187 0.49137 0.035798 0.97776-0.11433 1.3538-0.41788 0.29078-0.24188 0.4565-0.59255 0.45384-0.96039 0.008405-0.213-0.059405-0.4224-0.1923-0.59383-0.17352-0.20384-0.40632-0.35431-0.66922-0.43254-0.21538-0.087974-0.71537-0.22727-1.4846-0.43987-0.77512-0.15508-1.4971-0.49283-2.1-0.98238-0.93238-0.92201-1.1142-2.32-0.44614-3.431 0.26427-0.44118 0.66436-0.79434 1.1461-1.0117 0.57067-0.24219 1.1909-0.35991 1.8153-0.34457 0.94891-0.06554 1.8865 0.22967 2.6076 0.8211 0.60121 0.58765 0.93319 1.3787 0.92306 2.1994l-1.8615 0.087974c-0.028931-0.4155-0.21155-0.80776-0.51537-1.107-0.33597-0.24553-0.75456-0.36548-1.1769-0.33724-0.45378-0.022613-0.90192 0.10423-1.2692 0.35923-0.19383 0.15308-0.30187 0.38341-0.2923 0.62315-0.002117 0.2289 0.098679 0.44772 0.27692 0.60116 0.51369 0.33431 1.0956 0.56164 1.7077 0.66714 0.69914 0.15528 1.3741 0.3968 2.0076 0.71846 0.42675 0.24527 0.77723 0.59448 1.0154 1.0117 0.26094 0.49244 0.3879 1.0395 0.36922 1.5909 0.001596 0.55994-0.14949 1.1107-0.43845 1.5982-0.27995 0.48868-0.71661 0.87917-1.2461 1.1143-0.63054 0.25933-1.3136 0.38202-2 0.35923-0.9816 0.065593-1.9495-0.24894-2.6846-0.87241-0.67803-0.69417-1.0736-1.5964-1.1154-2.5439zm-37.576-8.101h-2.0153l-0.79998-2.2653h-3.6691l-0.75383 2.2653h-1.9692l3.5768-9.9631h1.9538l3.6768 9.9631zm-3.4076-3.9369-1.2692-3.7023-1.2384 3.7023h2.5076zm4.2384 3.9369v-9.9631h1.8077l3.7538 6.6567v-6.6567h1.723v9.9631h-1.8615l-3.6999-6.4955v6.4955h-1.723zm17.353 0h-2.0153l-0.80767-2.2653h-3.6691l-0.75383 2.2653h-1.9615l3.5692-9.9631h1.9615l3.6768 9.9631zm-3.4153-3.9369-1.2615-3.7023-1.2384 3.7023h2.4999zm4.2768 3.9369v-9.8825h1.8538v8.2036h4.6076v1.6788h-6.4614zm7.2383-4.9192c-0.026777-0.8705 0.11669-1.7381 0.42307-2.5586 0.20216-0.49705 0.49082-0.95804 0.85383-1.3636 0.32248-0.37614 0.72661-0.68127 1.1846-0.89441 0.61868-0.27386 1.2949-0.40927 1.9769-0.39589 1.2447-0.046646 2.4424 0.45649 3.2461 1.3636 1.6176 2.2908 1.6207 5.2867 0.007693 7.5805-0.83418 0.86432-2.01 1.3562-3.2422 1.3562s-2.4081-0.49184-3.2422-1.3562c-0.8617-1.0643-1.2906-2.3896-1.2077-3.7316zm1.9076-0.065981c-0.063111 0.90796 0.19115 1.8103 0.72306 2.5659 0.42599 0.55622 1.1083 0.88135 1.8307 0.87241 0.7183 0.0092288 1.396-0.31648 1.8153-0.87241 0.52861-0.7675 0.77732-1.6796 0.70768-2.5952 0.070042-0.90216-0.17322-1.8012-0.69229-2.5586-0.44757-0.53545-1.1277-0.84615-1.846-0.84329-0.71829 0.0028584-1.3957 0.31896-1.8385 0.85795-0.52278 0.76152-0.76871 1.6656-0.69998 2.5733zm12.546 1.3269v-1.6862h3.9922v3.9735c-0.47908 0.46775-1.0555 0.83484-1.6923 1.0777-0.70398 0.30162-1.4666 0.45897-2.2384 0.46187-0.88485 0.020962-1.7567-0.20589-2.5076-0.65248-0.72552-0.45327-1.2869-1.1086-1.6077-1.8768-0.36554-0.84094-0.5487-1.7437-0.53845-2.6539-0.018267-0.95236 0.18671-1.8966 0.59999-2.7639 0.36966-0.77833 0.98561-1.4269 1.7615-1.8548 0.66922-0.35399 1.4274-0.52641 2.1923-0.49852 0.9585-0.052697 1.9052 0.22292 2.6692 0.77711 0.66547 0.55764 1.1039 1.3206 1.2384 2.1554l-1.8384 0.37389c-0.10764-0.45261-0.36356-0.86085-0.73075-1.1657-0.37872-0.28923-0.85338-0.44003-1.3384-0.42521-0.74558-0.025858-1.4606 0.28365-1.9307 0.83576-0.52873 0.72649-0.78113 1.6034-0.71537 2.4853-0.069674 0.93949 0.18713 1.8747 0.73075 2.6612 0.44206 0.5751 1.1522 0.90667 1.9 0.88708 0.4035-0.0061326 0.80141-0.090963 1.1692-0.24926 0.3625-0.15249 0.69944-0.35505 0.99998-0.60116v-1.261h-2.1153z"/>
  </g>
 </g>
</svg>
