<?xml version="1.0" encoding="UTF-8"?>
<svg width="32" height="32" version="1.1" viewBox="0 0 32 32" xmlns="http://www.w3.org/2000/svg">
 <g fill="#fff" opacity=".6" transform="translate(5.5 5.5)">
  <g transform="translate(-.50864 -.44954)">
   <path d="m11 12h10v-1c0-4.77-3.37-8.88-8.05-9.81s-9.36 1.57-11.19 5.98c-1.82 4.41-0.28 9.49 3.68 12.14 3.97 2.65 9.26 2.13 12.63-1.24l-1.41-1.42c-2.63 2.63-6.73 3.1-9.89 1.13s-4.54-5.86-3.34-9.38c1.21-3.52 4.69-5.75 8.39-5.36 3.71 0.38 6.66 3.27 7.12 6.96h-2.03c-0.53-3.14-3.42-5.32-6.59-4.96-3.16 0.35-5.5 3.12-5.32 6.3s2.82 5.66 6 5.66v-2c-2.08 0-3.81-1.59-3.99-3.66-0.17-2.07 1.27-3.93 3.32-4.28 2.04-0.35 4.02 0.93 4.54 2.94h-3.87v2z" fill-rule="evenodd"/>
  </g>
 </g>
</svg>
