<?xml version="1.0" encoding="UTF-8"?>
<svg width="32" height="32" version="1.1" viewBox="0 0 32 32" xmlns="http://www.w3.org/2000/svg">
 <g fill="#fff" opacity=".6" transform="translate(8 6)">
  <path d="m8 8c-3.31 0-6 2.69-6 6s2.69 6 6 6 6-2.69 6-6-2.69-6-6-6zm0 2c0.71 0 1.42 0.19 2.03 0.56l-5.47 5.47c-0.73-1.23-0.75-2.77-0.04-4.02 0.72-1.24 2.04-2.01 3.48-2.01zm0 8c-0.71 0-1.42-0.2-2.03-0.56l5.47-5.47c0.37 0.61 0.56 1.32 0.56 2.03 0 1.06-0.42 2.08-1.17 2.83s-1.77 1.17-2.83 1.17zm-8-18v6h16v-6zm14 4h-12v-2h12zm-13 14c-0.55 0-1 0.45-1 1s0.45 1 1 1 1-0.45 1-1-0.45-1-1-1zm14 0c-0.55 0-1 0.45-1 1s0.45 1 1 1 1-0.45 1-1-0.45-1-1-1z" fill-rule="evenodd"/>
 </g>
</svg>
