<?xml version="1.0" ?>

<!DOCTYPE svg  PUBLIC '-//W3C//DTD SVG 1.1//EN'  'http://www.w3.org/Graphics/SVG/1.1/DTD/svg11.dtd'>

<!-- Uploaded to: SVG Repo, www.svgrepo.com, Generator: SVG Repo Mixer Tools -->
<svg width="25px" height="25px" viewBox="0 0 91 91" enable-background="new 0 0 91 91" id="Layer_1" version="1.1" xml:space="preserve" xmlns="http://www.w3.org/2000/svg" xmlns:xlink="http://www.w3.org/1999/xlink">

<g>

<g>

<polygon fill="#6EC4A7" points="8.015,63.352 0.8,90.053 27.767,83.105 12.858,68.197   "/>

<path d="M10.585,57.832l11.373,11.373l11.377,11.373L79.69,34.22L56.944,11.478L10.585,57.832z" fill="#647F94"/>

<path d="M61.302,29.813c1.117,1.117,1.117,2.93,0,4.047L35.239,59.924c-0.559,0.559-1.291,0.838-2.023,0.838    s-1.465-0.279-2.021-0.838c-1.119-1.119-1.119-2.93,0-4.047l26.059-26.064C58.372,28.696,60.185,28.696,61.302,29.813z" fill="#95AEC2"/>

<path d="M87.704,13.612L77.558,3.459c-1.68-1.683-3.918-2.608-6.299-2.608c-2.377,0-4.615,0.925-6.295,2.607    l-3.973,3.973l22.744,22.742l3.969-3.968c1.684-1.682,2.609-3.917,2.609-6.295C90.313,17.53,89.388,15.295,87.704,13.612z" fill="#95AEC2"/>

</g>

</g>

</svg>
